<svg width="186" height="136" viewBox="0 0 186 136" fill="none" xmlns="http://www.w3.org/2000/svg">
<path d="M92.9492 58.2272C137.902 58.2272 174.343 45.2155 174.343 29.1647C174.343 13.114 137.902 0.102295 92.9492 0.102295C47.9965 0.102295 11.5552 13.114 11.5552 29.1647C11.5552 45.2155 47.9965 58.2272 92.9492 58.2272Z" fill="#B5E6FF"/>
<path d="M93.1517 86.471C132.674 86.471 164.714 74.8338 164.714 60.4786C164.714 46.1233 132.674 34.4861 93.1517 34.4861C53.6292 34.4861 21.5898 46.1233 21.5898 60.4786C21.5898 74.8338 53.6292 86.471 93.1517 86.471Z" fill="#B5E6FF"/>
<path d="M96.0912 109.087C131.359 109.087 159.95 100.107 159.95 89.0294C159.95 77.9521 131.359 68.9722 96.0912 68.9722C60.8233 68.9722 32.2329 77.9521 32.2329 89.0294C32.2329 100.107 60.8233 109.087 96.0912 109.087Z" fill="#B5E6FF"/>
<path d="M78.2516 135.079C78.7584 135.181 78.6571 136 78.1503 136C56.5601 134.363 36.693 123.311 36.4903 112.054C36.3889 109.291 37.4026 106.324 40.5448 103.561C32.8413 99.4673 28.584 94.0436 28.584 88.2107C28.584 85.7547 29.3949 81.9684 33.4494 78.0798C24.2255 73.6795 18.9546 67.8465 18.9546 61.3995C18.9546 59.0459 19.8669 54.4409 25.7459 50.0406C13.2783 44.5147 6.48703 37.0444 6.48703 29.0625C6.48703 23.9458 9.32518 19.1362 14.596 15.0429C9.22382 12.1776 5.87886 9.51693 3.95297 7.57261C2.5339 6.13996 2.83799 3.88864 4.45979 2.86531H4.56115C5.7775 2.04665 7.29793 2.25132 8.31156 3.17231C10.2374 5.0143 13.9879 7.98194 20.7791 11.1543C22.705 10.1309 24.935 9.20993 27.2663 8.28894C41.3557 2.86531 61.9323 0 86.6647 0C110.485 0 130.555 1.22799 144.644 3.47931C163.903 6.54929 166.336 10.7449 166.336 14.0196C166.336 17.2942 163.903 21.4898 144.644 24.5598C130.555 26.8111 110.485 28.0391 86.6647 28.0391C54.3301 28.0391 33.8549 23.2295 21.0832 18.0105C15.6096 21.3875 12.5688 25.1738 12.5688 29.0625C12.5688 34.4861 18.9546 41.1377 32.3344 46.152C41.7612 41.854 57.8778 38.3747 84.9415 38.3747C107.343 38.3747 126.095 39.1934 139.272 40.8307C156.503 42.8774 159.95 45.538 159.95 49.1196C159.95 52.7013 156.503 55.3619 139.272 57.4086C126.095 58.9436 107.241 59.8646 84.9415 59.8646C64.4663 59.8646 46.6265 57.4086 32.8413 52.7013C27.8745 55.2596 25.0364 58.3296 25.0364 61.2972C25.0364 65.2882 29.8004 70.0978 39.0244 73.9865C40.3421 73.2701 41.8625 72.4515 43.5857 71.7351C53.5192 67.5395 67.8113 65.3905 84.9415 65.3905C104.606 65.3905 121.128 66.3115 132.785 67.9488C145.86 69.7908 151.131 72.2468 151.131 76.4424C151.131 80.6381 145.759 83.0941 132.683 85.0384C121.027 86.6757 104.504 87.5967 84.9415 87.5967C67.1018 87.5967 51.3906 85.0384 39.7339 80.7404C36.4903 83.0941 34.6658 85.6524 34.6658 88.1084C34.6658 91.69 38.5176 96.0903 46.6265 99.5696C53.8233 96.295 65.6827 93.7366 84.6374 93.0203C101.362 92.4063 115.857 92.611 126.399 93.6343C140.184 94.9646 143.225 97.216 144.441 99.1603C145.252 100.491 145.252 102.026 144.543 103.356C140.285 110.929 101.362 111.747 84.8402 111.747C70.6494 111.952 53.6205 128.837 78.2516 135.079ZM56.256 102.844C63.6554 104.686 73.1835 105.812 84.7388 105.812C115.553 105.812 130.453 103.356 136.332 101.616C130.453 100.081 115.553 98.2393 84.8402 99.3649C72.2712 99.7743 62.9459 101.105 56.256 102.844ZM47.3361 76.9541C56.9655 79.7171 69.5345 81.5591 84.9415 81.5591C121.635 81.5591 137.853 78.5914 143.326 76.6471C137.853 74.7028 121.635 71.7351 84.9415 71.7351C65.784 71.7351 54.026 74.4981 47.3361 76.9541ZM42.1666 49.1196C53.1137 51.8826 67.3045 53.7246 84.9415 53.7246C125.892 53.7246 144.441 51.064 151.233 49.1196C144.441 47.1753 125.892 44.5147 84.9415 44.5147C67.4058 44.5147 52.8097 46.152 42.1666 49.1196ZM28.6854 14.2242C40.8489 18.3175 59.2968 21.7968 86.6647 21.7968C137.954 21.7968 156.199 16.4755 159.848 13.9172C156.199 11.4612 137.954 6.13995 86.6647 6.13995C62.6418 6.13995 42.8761 8.90293 29.3949 14.0196C29.1922 14.1219 28.8881 14.1219 28.6854 14.2242Z" fill="url(#paint0_linear)"/>
<path d="M71.2407 64.1227C77.1098 62.2403 79.9713 54.6882 77.632 47.2547C75.2928 39.8211 68.6386 35.3211 62.7695 37.2036C56.9004 39.086 54.0389 46.6381 56.3781 54.0716C58.7174 61.5052 65.3716 66.0052 71.2407 64.1227Z" fill="#001D6C"/>
<path d="M49.7686 35.1001C52.8094 44.4124 61.8307 43.2867 61.8307 43.2867" stroke="#001D6C" stroke-width="5" stroke-miterlimit="10" stroke-linecap="round" stroke-linejoin="round"/>
<path d="M55.1411 24.4575C55.1411 24.4575 58.6888 20.8759 65.8855 20.8759C73.0823 20.8759 76.6299 24.4575 76.6299 24.4575" stroke="#001D6C" stroke-width="5" stroke-miterlimit="10" stroke-linecap="round" stroke-linejoin="round"/>
<path d="M123.167 54.0881C125.506 46.6546 122.645 39.1025 116.776 37.22C110.907 35.3376 104.253 39.8376 101.913 47.2711C99.5741 54.7047 102.436 62.2567 108.305 64.1392C114.174 66.0217 120.828 61.5216 123.167 54.0881Z" fill="#001D6C"/>
<path d="M129.845 35.1001C126.804 44.4124 117.783 43.2867 117.783 43.2867" stroke="#001D6C" stroke-width="5" stroke-miterlimit="10" stroke-linecap="round" stroke-linejoin="round"/>
<path d="M124.473 24.4575C124.473 24.4575 120.925 20.8759 113.728 20.8759C106.532 20.8759 102.984 24.4575 102.984 24.4575" stroke="#001D6C" stroke-width="5" stroke-miterlimit="10" stroke-linecap="round" stroke-linejoin="round"/>
<path d="M81.1909 68.9722L90.0095 74.9075L98.3212 68.9722" stroke="#001D6C" stroke-width="5" stroke-miterlimit="10" stroke-linecap="round" stroke-linejoin="round"/>
<path d="M11.5553 93.225C17.9371 93.225 23.1106 88.002 23.1106 81.5591C23.1106 75.1162 17.9371 69.8932 11.5553 69.8932C5.17349 69.8932 0 75.1162 0 81.5591C0 88.002 5.17349 93.225 11.5553 93.225Z" fill="#8FBAFF"/>
<path d="M174.444 93.225C180.826 93.225 186 88.002 186 81.5591C186 75.1162 180.826 69.8932 174.444 69.8932C168.063 69.8932 162.889 75.1162 162.889 81.5591C162.889 88.002 168.063 93.225 174.444 93.225Z" fill="#8FBAFF"/>
<defs>
<linearGradient id="paint0_linear" x1="84.7153" y1="135.987" x2="84.7153" y2="0" gradientUnits="userSpaceOnUse">
<stop stop-color="#ECFFFC"/>
<stop offset="0.0116046" stop-color="#D5F7FD"/>
<stop offset="0.0336338" stop-color="#A0E4FF"/>
<stop offset="0.2668" stop-color="#86CAFF"/>
<stop offset="0.7043" stop-color="#4B91FF"/>
</linearGradient>
</defs>
</svg>
