<svg width="188" height="205" viewBox="0 0 188 205" fill="none" xmlns="http://www.w3.org/2000/svg">
<path d="M148.418 104.165C144.954 96.7479 139.866 81.2682 151.232 67.7235C137.592 69.121 134.453 79.5483 135.752 86.2131C137.051 93.093 132.504 98.6829 128.715 97.6079C122.869 95.9954 125.359 88.6856 125.359 88.6856C125.359 88.6856 126.875 85.2457 128.174 79.5483C129.473 73.3134 130.447 64.4986 128.499 54.6088C125.901 41.1716 116.915 32.5718 106.739 27.4119C113.018 39.1292 107.497 51.3839 96.347 55.4688C96.347 55.4688 104.899 48.2665 99.3781 37.5167C93.8571 26.8744 85.4132 27.1969 83.3564 18.4896C81.6243 10.6423 87.6866 0 87.6866 0C87.6866 0 72.7474 4.5149 71.8813 20.4246C71.4483 29.0244 76.7528 36.7642 77.0776 42.7841C77.5106 54.2863 71.1235 68.1535 63.4374 76.9683C67.0098 57.1888 52.7202 50.6314 42.869 48.8039C52.6119 56.1138 54.0192 62.3487 53.6945 71.486C53.1532 84.3857 43.9515 98.8979 38.3222 108.25C32.1517 118.247 20.4602 138.672 25.3316 160.172C34.3168 199.516 74.2629 204.031 92.5581 204.031C110.853 204.031 153.181 198.333 159.784 160.172C163.032 142.327 154.696 117.71 148.418 104.165Z" fill="url(#paint0_linear)"/>
<path d="M69.1745 165.116C73.7782 165.116 77.5102 161.122 77.5102 156.194C77.5102 151.267 73.7782 147.272 69.1745 147.272C64.5709 147.272 60.8389 151.267 60.8389 156.194C60.8389 161.122 64.5709 165.116 69.1745 165.116Z" fill="#8D0021"/>
<path d="M79.026 149.852C79.026 149.852 72.3142 147.917 59.6484 142.973C48.2816 138.565 40.0542 133.835 40.0542 133.835L45.0339 128.675C45.0339 128.675 54.7769 132.008 65.1694 137.813C76.4279 144.047 79.8921 147.702 79.8921 147.702L79.026 149.852Z" fill="#8D0021"/>
<path d="M114.751 165.116C119.354 165.116 123.086 161.122 123.086 156.194C123.086 151.267 119.354 147.272 114.751 147.272C110.147 147.272 106.415 151.267 106.415 156.194C106.415 161.122 110.147 165.116 114.751 165.116Z" fill="#8D0021"/>
<path d="M103.492 150.067C103.492 150.067 110.204 148.024 122.87 143.079C134.236 138.565 142.356 133.727 142.356 133.727L137.376 128.567C137.376 128.567 127.741 132.007 117.24 137.92C106.09 144.262 102.626 147.917 102.626 147.917L103.492 150.067Z" fill="#8D0021"/>
<path d="M75.0205 182.961L91.2588 177.371L107.497 182.961" stroke="#8D0021" stroke-width="3" stroke-miterlimit="10"/>
<path d="M12.3411 192.421C19.1569 192.421 24.6822 186.934 24.6822 180.166C24.6822 173.398 19.1569 167.911 12.3411 167.911C5.52529 167.911 0 173.398 0 180.166C0 186.934 5.52529 192.421 12.3411 192.421Z" fill="#FF6C7D"/>
<path d="M175.481 192.421C182.297 192.421 187.822 186.934 187.822 180.166C187.822 173.398 182.297 167.911 175.481 167.911C168.665 167.911 163.14 173.398 163.14 180.166C163.14 186.934 168.665 192.421 175.481 192.421Z" fill="#FF6C7D"/>
<defs>
<linearGradient id="paint0_linear" x1="92.3861" y1="0" x2="92.3861" y2="204.022" gradientUnits="userSpaceOnUse">
<stop stop-color="#FFE7D3"/>
<stop offset="0.1085" stop-color="#FFE2D0"/>
<stop offset="0.2351" stop-color="#FFD4C6"/>
<stop offset="0.3707" stop-color="#FFBDB5"/>
<stop offset="0.5126" stop-color="#FF9C9E"/>
<stop offset="0.6581" stop-color="#FF7281"/>
<stop offset="0.6776" stop-color="#FF6C7D"/>
</linearGradient>
</defs>
</svg>
