<svg width="166" height="141" viewBox="0 0 166 141" fill="none" xmlns="http://www.w3.org/2000/svg">
<path d="M165.57 72.62C165.57 59.14 156.56 47.76 144.23 44.18C147.78 41.96 150.15 38.02 150.15 33.52C150.15 26.57 144.52 20.94 137.57 20.94C135.07 20.94 132.74 21.68 130.78 22.94C129.34 10.41 118.71 0.68 105.8 0.68C97.06 0.68 89.36 5.14 84.85 11.91C78.74 4.63 69.57 0 59.32 0C40.9 0 25.97 14.93 25.97 33.34C25.97 37.79 26.85 42.03 28.43 45.91C12.16 49.56 0 64.08 0 81.45C0 101.57 16.31 117.87 36.42 117.87C37.33 117.87 38.22 117.83 39.11 117.76C40.77 130.05 51.29 139.52 64.03 139.52C72.96 139.52 80.79 134.87 85.26 127.85C90.16 135.65 98.83 140.84 108.72 140.84C124.01 140.84 136.41 128.44 136.41 113.15C136.41 109.25 135.6 105.55 134.15 102.18C134.74 102.22 135.34 102.24 135.95 102.24C152.31 102.24 165.57 88.98 165.57 72.62Z" fill="url(#paint0_linear)"/>
<path d="M22.5201 140.74C28.8162 140.74 33.9201 135.636 33.9201 129.34C33.9201 123.044 28.8162 117.94 22.5201 117.94C16.2241 117.94 11.1201 123.044 11.1201 129.34C11.1201 135.636 16.2241 140.74 22.5201 140.74Z" fill="#00D9C4"/>
<path d="M148.81 140.74C155.106 140.74 160.21 135.636 160.21 129.34C160.21 123.044 155.106 117.94 148.81 117.94C142.514 117.94 137.41 123.044 137.41 129.34C137.41 135.636 142.514 140.74 148.81 140.74Z" fill="#00D9C4"/>
<path d="M106.57 79.8C112.137 79.8 116.65 74.3513 116.65 67.63C116.65 60.9087 112.137 55.46 106.57 55.46C101.003 55.46 96.4902 60.9087 96.4902 67.63C96.4902 74.3513 101.003 79.8 106.57 79.8Z" fill="#007C63"/>
<path d="M96.6699 44.3399C91.0299 42.0499 94.83 32.5599 104.01 30.2599C108.83 29.0599 113.5 29.8399 115 34.2499C118.2 43.6999 100.64 45.9499 96.6699 44.3399Z" fill="#007C63"/>
<path d="M61.1396 79.8C66.7066 79.8 71.2196 74.3513 71.2196 67.63C71.2196 60.9087 66.7066 55.46 61.1396 55.46C55.5725 55.46 51.0596 60.9087 51.0596 67.63C51.0596 74.3513 55.5725 79.8 61.1396 79.8Z" fill="#007C63"/>
<path d="M71.0397 44.3399C76.6797 42.0499 72.8797 32.5599 63.6997 30.2599C58.8797 29.0599 54.2097 29.8399 52.7097 34.2499C49.5097 43.6999 67.0697 45.9499 71.0397 44.3399Z" fill="#007C63"/>
<path d="M83.8498 99.92C72.9798 99.92 72.2998 87.96 72.2998 87.96C72.2998 87.96 80.9398 85.99 83.2798 79.69C83.4798 79.16 84.2298 79.16 84.4298 79.69C86.7698 85.99 95.4098 87.96 95.4098 87.96C95.4098 87.96 94.7298 99.92 83.8498 99.92Z" fill="#007C63"/>
<defs>
<linearGradient id="paint0_linear" x1="82.7858" y1="140.841" x2="82.7858" y2="0" gradientUnits="userSpaceOnUse">
<stop offset="0.00929646" stop-color="#00D9C4"/>
<stop offset="0.1532" stop-color="#04DAC4"/>
<stop offset="0.2862" stop-color="#0FDBC4"/>
<stop offset="0.415" stop-color="#22DFC4"/>
<stop offset="0.5412" stop-color="#3CE3C5"/>
<stop offset="0.6654" stop-color="#5EE9C5"/>
<stop offset="0.7882" stop-color="#88F0C5"/>
<stop offset="0.9076" stop-color="#B8F8C6"/>
<stop offset="1" stop-color="#E3FFC6"/>
</linearGradient>
</defs>
</svg>
