<svg width="253" height="148" viewBox="0 0 253 148" fill="none" xmlns="http://www.w3.org/2000/svg">
<path d="M219.326 71.4989C213.056 25.1316 206.942 7.91225 206.942 7.91225C206.942 7.91225 183.75 0.312642 130.134 0V23.4482H123.226V0C69.6222 0.312642 46.4308 7.91225 46.4308 7.91225C46.4308 7.91225 40.317 25.1196 34.0468 71.4989C27.7765 117.866 27.933 143.01 27.933 143.01C27.933 143.01 66.9384 148 126.692 148C186.446 148 225.452 143.01 225.452 143.01C225.452 143.01 225.596 117.866 219.326 71.4989Z" fill="url(#paint0_linear)"/>
<path d="M112.419 67.8554L66.9746 55.9389L67.8532 35.3046L116.727 51.4297L112.419 67.8554Z" fill="#745700"/>
<path d="M99.9385 89.043C105.09 89.043 109.266 84.3 109.266 78.4492C109.266 72.5985 105.09 67.8555 99.9385 67.8555C94.7872 67.8555 90.6113 72.5985 90.6113 78.4492C90.6113 84.3 94.7872 89.043 99.9385 89.043Z" fill="#745700"/>
<path d="M136.116 67.8554L181.56 55.9389L180.682 35.3046L131.808 51.4297L136.116 67.8554Z" fill="#745700"/>
<path d="M148.596 89.043C153.747 89.043 157.923 84.3 157.923 78.4492C157.923 72.5985 153.747 67.8555 148.596 67.8555C143.444 67.8555 139.269 72.5985 139.269 78.4492C139.269 84.3 143.444 89.043 148.596 89.043Z" fill="#745700"/>
<path d="M119.339 99.1797C123.347 100.25 131.807 100.118 136.152 95.7166L134.347 94.0692" stroke="#745700" stroke-width="3" stroke-miterlimit="10" stroke-linecap="round" stroke-linejoin="round"/>
<path d="M13.7199 108.198C21.2972 108.198 27.4398 102.061 27.4398 94.4901C27.4398 86.9193 21.2972 80.782 13.7199 80.782C6.14261 80.782 0 86.9193 0 94.4901C0 102.061 6.14261 108.198 13.7199 108.198Z" fill="#FFBF18"/>
<path d="M239.268 108.198C246.845 108.198 252.988 102.061 252.988 94.4901C252.988 86.9193 246.845 80.782 239.268 80.782C231.69 80.782 225.548 86.9193 225.548 94.4901C225.548 102.061 231.69 108.198 239.268 108.198Z" fill="#FFBF18"/>
<defs>
<linearGradient id="paint0_linear" x1="126.685" y1="0" x2="126.685" y2="147.997" gradientUnits="userSpaceOnUse">
<stop offset="0.0146" stop-color="#FFE549"/>
<stop offset="0.3137" stop-color="#FFE049"/>
<stop offset="0.6568" stop-color="#FFD248"/>
<stop offset="1" stop-color="#FFBD46"/>
</linearGradient>
</defs>
</svg>
