<svg width="199" height="576" viewBox="0 0 199 576" fill="none" xmlns="http://www.w3.org/2000/svg">
<path d="M198.8 66.1H0V575.9H198.8V66.1Z" fill="#FFF8E3"/>
<path d="M165.1 0H11L0 66.1H198.8L165.1 0Z" fill="#00D3E9"/>
<path d="M79.8 79.4H22V137.2H79.8V79.4Z" fill="#BDEEFF"/>
<path d="M79.8 79.4H22V81.3H79.8V79.4Z" fill="#CCD3D9"/>
<path d="M79.1 135.3H21.3V137.2H79.1V135.3Z" fill="#CCD3D9"/>
<path d="M178.2 79.4H120.4V137.2H178.2V79.4Z" fill="#BDEEFF"/>
<path d="M178.2 79.4H120.4V81.3H178.2V79.4Z" fill="#CCD3D9"/>
<path d="M177.4 135.3H119.6V137.2H177.4V135.3Z" fill="#CCD3D9"/>
<path d="M79.8 154.7H22V212.5H79.8V154.7Z" fill="#BDEEFF"/>
<path d="M79.8 154.7H22V156.6H79.8V154.7Z" fill="#CCD3D9"/>
<path d="M79.1 210.6H21.3V212.5H79.1V210.6Z" fill="#CCD3D9"/>
<path d="M178.2 154.7H120.4V212.5H178.2V154.7Z" fill="#BDEEFF"/>
<path d="M178.2 154.7H120.4V156.6H178.2V154.7Z" fill="#CCD3D9"/>
<path d="M177.4 210.6H119.6V212.5H177.4V210.6Z" fill="#CCD3D9"/>
<path d="M79.8 229.9H22V287.7H79.8V229.9Z" fill="#BDEEFF"/>
<path d="M79.8 229.9H22V231.8H79.8V229.9Z" fill="#CCD3D9"/>
<path d="M79.1 285.8H21.3V287.7H79.1V285.8Z" fill="#CCD3D9"/>
<path d="M178.2 229.9H120.4V287.7H178.2V229.9Z" fill="#BDEEFF"/>
<path d="M178.2 229.9H120.4V231.8H178.2V229.9Z" fill="#CCD3D9"/>
<path d="M177.4 285.8H119.6V287.7H177.4V285.8Z" fill="#CCD3D9"/>
<path d="M79.8 305.1H22V362.9H79.8V305.1Z" fill="#BDEEFF"/>
<path d="M79.8 305.1H22V307H79.8V305.1Z" fill="#CCD3D9"/>
<path d="M79.1 361H21.3V362.9H79.1V361Z" fill="#CCD3D9"/>
<path d="M178.2 305.1H120.4V362.9H178.2V305.1Z" fill="#BDEEFF"/>
<path d="M178.2 305.1H120.4V307H178.2V305.1Z" fill="#CCD3D9"/>
<path d="M177.4 361H119.6V362.9H177.4V361Z" fill="#CCD3D9"/>
<path d="M79.8 380.4H22V438.2H79.8V380.4Z" fill="#BDEEFF"/>
<path d="M79.8 380.4H22V382.3H79.8V380.4Z" fill="#CCD3D9"/>
<path d="M79.1 436.3H21.3V438.2H79.1V436.3Z" fill="#CCD3D9"/>
<path d="M178.2 380.4H120.4V438.2H178.2V380.4Z" fill="#BDEEFF"/>
<path d="M178.2 380.4H120.4V382.3H178.2V380.4Z" fill="#CCD3D9"/>
<path d="M177.4 436.3H119.6V438.2H177.4V436.3Z" fill="#CCD3D9"/>
</svg>
