<svg width="297" height="379" viewBox="0 0 297 379" fill="none" xmlns="http://www.w3.org/2000/svg">
<path d="M283.15 0H-3.95996V379H283.15V0Z" fill="#FFF7E6"/>
<path d="M128.194 264.08H30.5847V379H128.194V264.08Z" fill="#BDEEFF"/>
<path d="M80.6096 264.08H78.2457V379H80.6096V264.08Z" fill="#919FAD"/>
<path d="M84.8801 110.879H30.6609V165.098H84.8801V110.879Z" fill="#BDEEFF"/>
<path d="M84.8801 110.879H30.6609V112.632H84.8801V110.879Z" fill="#CCD3D9"/>
<path d="M84.27 163.344H30.0509V165.098H84.27V163.344Z" fill="#CCD3D9"/>
<path d="M172.271 110.879H118.052V165.098H172.271V110.879Z" fill="#BDEEFF"/>
<path d="M172.271 110.879H118.052V112.632H172.271V110.879Z" fill="#CCD3D9"/>
<path d="M171.585 163.344H117.366V165.098H171.585V163.344Z" fill="#CCD3D9"/>
<path d="M258.442 110.879H204.223V165.098H258.442V110.879Z" fill="#BDEEFF"/>
<path d="M258.442 110.879H204.223V112.632H258.442V110.879Z" fill="#CCD3D9"/>
<path d="M257.756 163.344H203.537V165.098H257.756V163.344Z" fill="#CCD3D9"/>
<path d="M128.804 24.86H31.1948V79.0791H128.804V24.86Z" fill="#BDEEFF"/>
<path d="M128.804 24.86H31.1948V26.6139H128.804V24.86Z" fill="#CCD3D9"/>
<path d="M127.661 77.3252H30.0509V79.0791H127.661V77.3252Z" fill="#CCD3D9"/>
<path d="M81.2197 24.86H78.8557V79.0791H81.2197V24.86Z" fill="#919FAD"/>
<path d="M259.434 24.86H161.824V79.0791H259.434V24.86Z" fill="#BDEEFF"/>
<path d="M259.434 24.86H161.824V26.6139H259.434V24.86Z" fill="#CCD3D9"/>
<path d="M258.213 77.3252H160.604V79.0791H258.213V77.3252Z" fill="#CCD3D9"/>
<path d="M211.773 24.86H209.409V79.0791H211.773V24.86Z" fill="#919FAD"/>
<path d="M283.15 214.741H-3.95996V240.669H283.15V214.741Z" fill="#FF8A4B"/>
<path d="M296.19 269.265H-17L-3.95996 240.593H283.15L296.19 269.265Z" fill="#FF8A4B"/>
<path d="M-6.09517 269.265H-17L-3.95996 240.593H6.02978L-6.09517 269.265Z" fill="#F1F8FF"/>
<path d="M12.8167 269.265H1.83563L13.3505 240.593H23.3403L12.8167 269.265Z" fill="#F1F8FF"/>
<path d="M31.6523 269.265H20.7475L30.661 240.593H40.6507L31.6523 269.265Z" fill="#F1F8FF"/>
<path d="M50.488 269.265H39.5831L47.8952 240.593H57.9612L50.488 269.265Z" fill="#F1F8FF"/>
<path d="M69.3998 269.265H58.495L65.2057 240.593H75.2717L69.3998 269.265Z" fill="#F1F8FF"/>
<path d="M88.2354 269.265H77.3306L82.5161 240.593H92.5058L88.2354 269.265Z" fill="#F1F8FF"/>
<path d="M107.147 269.265H96.1662L99.8266 240.593H109.816L107.147 269.265Z" fill="#F1F8FF"/>
<path d="M125.983 269.265H115.078L117.061 240.593H127.127L125.983 269.265Z" fill="#F1F8FF"/>
<path d="M144.819 269.265H133.914L134.371 240.593H144.437L144.819 269.265Z" fill="#F1F8FF"/>
<path d="M163.73 269.265H152.749L151.682 240.593H161.671L163.73 269.265Z" fill="#F1F8FF"/>
<path d="M182.566 269.265H171.661L168.992 240.593H178.982L182.566 269.265Z" fill="#F1F8FF"/>
<path d="M201.402 269.265H190.497L186.303 240.593H196.292L201.402 269.265Z" fill="#F1F8FF"/>
<path d="M220.314 269.265H209.409L203.537 240.593H213.603L220.314 269.265Z" fill="#F1F8FF"/>
<path d="M239.149 269.265H228.244L220.847 240.593H230.837L239.149 269.265Z" fill="#F1F8FF"/>
<path d="M258.061 269.265H247.08L238.158 240.593H248.148L258.061 269.265Z" fill="#F1F8FF"/>
<path d="M276.897 269.265H265.992L255.468 240.593H265.458L276.897 269.265Z" fill="#F1F8FF"/>
<path d="M296.19 269.265H285.285L273.16 240.593H283.15L296.19 269.265Z" fill="#F1F8FF"/>
<path d="M-17 269.265C-17 273.612 -12.8821 277.044 -7.77284 277.044C-2.66358 277.044 1.45433 273.536 1.45433 269.265H-17Z" fill="#FF8A4B"/>
<path d="M1.45435 269.265C1.45435 273.612 5.57225 277.044 10.6815 277.044C15.7908 277.044 19.9087 273.536 19.9087 269.265H1.45435Z" fill="#FF8A4B"/>
<path d="M19.8324 269.265C19.8324 273.612 23.9503 277.044 29.0596 277.044C34.1688 277.044 38.2867 273.536 38.2867 269.265H19.8324Z" fill="#FF8A4B"/>
<path d="M38.2867 269.265C38.2867 273.612 42.4046 277.044 47.5139 277.044C52.6232 277.044 56.7411 273.536 56.7411 269.265H38.2867Z" fill="#FF8A4B"/>
<path d="M56.6648 269.265C56.6648 273.612 60.7827 277.044 65.892 277.044C71.0012 277.044 75.1191 273.536 75.1191 269.265H56.6648Z" fill="#FF8A4B"/>
<path d="M75.1191 269.265C75.1191 273.612 79.237 277.044 84.3463 277.044C89.4556 277.044 93.5735 273.536 93.5735 269.265H75.1191Z" fill="#FF8A4B"/>
<path d="M93.5734 269.265C93.5734 273.612 97.6913 277.044 102.801 277.044C107.91 277.044 112.028 273.536 112.028 269.265H93.5734Z" fill="#FF8A4B"/>
<path d="M111.952 269.265C111.952 273.612 116.069 277.044 121.179 277.044C126.288 277.044 130.406 273.536 130.406 269.265H111.952Z" fill="#FF8A4B"/>
<path d="M130.406 269.265C130.406 273.612 134.524 277.044 139.633 277.044C144.742 277.044 148.86 273.536 148.86 269.265H130.406Z" fill="#FF8A4B"/>
<path d="M148.784 269.265C148.784 273.612 152.902 277.044 158.011 277.044C163.12 277.044 167.238 273.536 167.238 269.265H148.784Z" fill="#FF8A4B"/>
<path d="M167.238 269.265C167.238 273.612 171.356 277.044 176.465 277.044C181.575 277.044 185.693 273.536 185.693 269.265H167.238Z" fill="#FF8A4B"/>
<path d="M185.693 269.265C185.693 273.612 189.81 277.044 194.92 277.044C200.029 277.044 204.147 273.536 204.147 269.265H185.693Z" fill="#FF8A4B"/>
<path d="M204.071 269.265C204.071 273.612 208.189 277.044 213.298 277.044C218.407 277.044 222.525 273.536 222.525 269.265H204.071Z" fill="#FF8A4B"/>
<path d="M222.525 269.265C222.525 273.612 226.643 277.044 231.752 277.044C236.861 277.044 240.979 273.536 240.979 269.265H222.525Z" fill="#FF8A4B"/>
<path d="M240.903 269.265C240.903 273.612 245.021 277.044 250.13 277.044C255.239 277.044 259.357 273.536 259.357 269.265H240.903Z" fill="#FF8A4B"/>
<path d="M259.357 269.265C259.357 273.612 263.475 277.044 268.584 277.044C273.694 277.044 277.812 273.536 277.812 269.265H259.357Z" fill="#FF8A4B"/>
<path d="M277.812 269.265C277.812 273.612 281.93 277.044 287.039 277.044C292.148 277.044 296.266 273.536 296.266 269.265H277.812Z" fill="#FF8A4B"/>
<path d="M210.476 189.5C210.476 189.5 187.065 179.587 138.184 179.587C89.303 179.587 65.892 189.5 65.892 189.5L82.5161 240.593H193.852L210.476 189.5Z" fill="#FFD064"/>
</svg>
