<svg width="236" height="206" viewBox="0 0 236 206" fill="none" xmlns="http://www.w3.org/2000/svg">
<path d="M217.57 206H18.286V65.8072L117.9 6.65979L217.57 63.4368V206Z" fill="#FFDCAA"/>
<path d="M235.856 79.5781L117.9 10.7233L0 79.5781V68.8548L117.9 0L235.856 68.8548V79.5781Z" fill="#FF4333"/>
<path d="M200.808 122.245H120.27V192.229H200.808V122.245Z" fill="#BDEEFF"/>
<path d="M200.808 122.245H120.27V124.503H200.808V122.245Z" fill="#CCD3D9"/>
<path d="M199.792 189.971H119.254V192.229H199.792V189.971Z" fill="#CCD3D9"/>
<path d="M161.47 122.245H159.551V192.229H161.47V122.245Z" fill="#919FAD"/>
<path d="M200.808 152.553H120.27V157.237H200.808V152.553Z" fill="white"/>
<path d="M122.979 157.237H120.27V192.229H122.979V157.237Z" fill="white"/>
<path d="M127.833 157.237H125.124V192.229H127.833V157.237Z" fill="white"/>
<path d="M132.687 157.237H129.978V192.229H132.687V157.237Z" fill="white"/>
<path d="M137.54 157.237H134.831V192.229H137.54V157.237Z" fill="white"/>
<path d="M142.45 157.237H139.741V192.229H142.45V157.237Z" fill="white"/>
<path d="M147.304 157.237H144.595V192.229H147.304V157.237Z" fill="white"/>
<path d="M152.158 157.237H149.449V192.229H152.158V157.237Z" fill="white"/>
<path d="M157.012 157.237H154.302V192.229H157.012V157.237Z" fill="white"/>
<path d="M161.922 157.237H159.213V192.229H161.922V157.237Z" fill="white"/>
<path d="M166.775 157.237H164.066V192.229H166.775V157.237Z" fill="white"/>
<path d="M171.629 157.237H168.92V192.229H171.629V157.237Z" fill="white"/>
<path d="M176.483 157.237H173.774V192.229H176.483V157.237Z" fill="white"/>
<path d="M181.393 157.237H178.684V192.229H181.393V157.237Z" fill="white"/>
<path d="M186.247 157.237H183.538V192.229H186.247V157.237Z" fill="white"/>
<path d="M191.1 157.237H188.391V192.229H191.1V157.237Z" fill="white"/>
<path d="M195.954 157.237H193.245V192.229H195.954V157.237Z" fill="white"/>
<path d="M200.808 157.237H198.099V192.229H200.808V157.237Z" fill="white"/>
<path d="M154.472 48.932H82.2307V89.0597H154.472V48.932Z" fill="#BDEEFF"/>
<path d="M154.472 48.932H82.2307V50.2301H154.472V48.932Z" fill="#CCD3D9"/>
<path d="M153.569 87.7616H81.3277V89.0597H153.569V87.7616Z" fill="#CCD3D9"/>
<path d="M119.254 48.932H117.505V89.0597H119.254V48.932Z" fill="#919FAD"/>
</svg>
