<svg width="406" height="324" viewBox="0 0 406 324" fill="none" xmlns="http://www.w3.org/2000/svg">
<path d="M406 34.9H0V323.2H406V34.9Z" fill="#FFEFDB"/>
<path d="M406 0H0V33H406V0Z" fill="#FFB0B8"/>
<path d="M406 118.1H0V127.1H406V118.1Z" fill="#D5CCC1"/>
<path d="M406 227.5H0V236.5H406V227.5Z" fill="#D5CCC1"/>
<path d="M117.7 40H27.8V118.1H117.7V40Z" fill="#BDEEFF"/>
<path d="M117.7 40H27.8V42.5H117.7V40Z" fill="#CCD3D9"/>
<path d="M116.6 115.6H26.7V118.1H116.6V115.6Z" fill="#CCD3D9"/>
<path d="M73.8 40H71.7V118.1H73.8V40Z" fill="#919FAD"/>
<path d="M117.7 73.9H27.8V79.1H117.7V73.9Z" fill="white"/>
<path d="M30.8 79.1H27.8V118.2H30.8V79.1Z" fill="white"/>
<path d="M36.2 79.1H33.2V118.2H36.2V79.1Z" fill="white"/>
<path d="M41.7 79.1H38.7V118.2H41.7V79.1Z" fill="white"/>
<path d="M47.1 79.1H44.1V118.2H47.1V79.1Z" fill="white"/>
<path d="M52.5 79.1H49.5V118.2H52.5V79.1Z" fill="white"/>
<path d="M58 79.1H55V118.2H58V79.1Z" fill="white"/>
<path d="M63.4 79.1H60.4V118.2H63.4V79.1Z" fill="white"/>
<path d="M68.8 79.1H65.8V118.2H68.8V79.1Z" fill="white"/>
<path d="M74.3 79.1H71.3V118.2H74.3V79.1Z" fill="white"/>
<path d="M79.7 79.1H76.7V118.2H79.7V79.1Z" fill="white"/>
<path d="M85.1 79.1H82.1V118.2H85.1V79.1Z" fill="white"/>
<path d="M90.6 79.1H87.6V118.2H90.6V79.1Z" fill="white"/>
<path d="M96 79.1H93V118.2H96V79.1Z" fill="white"/>
<path d="M101.4 79.1H98.4V118.2H101.4V79.1Z" fill="white"/>
<path d="M106.9 79.1H103.9V118.2H106.9V79.1Z" fill="white"/>
<path d="M112.3 79.1H109.3V118.2H112.3V79.1Z" fill="white"/>
<path d="M117.7 79.1H114.7V118.2H117.7V79.1Z" fill="white"/>
<path d="M248.5 40H158.6V118.1H248.5V40Z" fill="#BDEEFF"/>
<path d="M248.5 40H158.6V42.5H248.5V40Z" fill="#CCD3D9"/>
<path d="M247.4 115.6H157.5V118.1H247.4V115.6Z" fill="#CCD3D9"/>
<path d="M204.6 40H202.5V118.1H204.6V40Z" fill="#919FAD"/>
<path d="M248.5 73.9H158.6V79.1H248.5V73.9Z" fill="white"/>
<path d="M161.6 79.1H158.6V118.2H161.6V79.1Z" fill="white"/>
<path d="M167.1 79.1H164.1V118.2H167.1V79.1Z" fill="white"/>
<path d="M172.5 79.1H169.5V118.2H172.5V79.1Z" fill="white"/>
<path d="M177.9 79.1H174.9V118.2H177.9V79.1Z" fill="white"/>
<path d="M183.4 79.1H180.4V118.2H183.4V79.1Z" fill="white"/>
<path d="M188.8 79.1H185.8V118.2H188.8V79.1Z" fill="white"/>
<path d="M194.2 79.1H191.2V118.2H194.2V79.1Z" fill="white"/>
<path d="M199.7 79.1H196.7V118.2H199.7V79.1Z" fill="white"/>
<path d="M205.1 79.1H202.1V118.2H205.1V79.1Z" fill="white"/>
<path d="M210.5 79.1H207.5V118.2H210.5V79.1Z" fill="white"/>
<path d="M216 79.1H213V118.2H216V79.1Z" fill="white"/>
<path d="M221.4 79.1H218.4V118.2H221.4V79.1Z" fill="white"/>
<path d="M226.8 79.1H223.8V118.2H226.8V79.1Z" fill="white"/>
<path d="M232.3 79.1H229.3V118.2H232.3V79.1Z" fill="white"/>
<path d="M237.7 79.1H234.7V118.2H237.7V79.1Z" fill="white"/>
<path d="M243.1 79.1H240.1V118.2H243.1V79.1Z" fill="white"/>
<path d="M248.5 79.1H245.5V118.2H248.5V79.1Z" fill="white"/>
<path d="M376.9 40H287V118.1H376.9V40Z" fill="#BDEEFF"/>
<path d="M376.9 40H287V42.5H376.9V40Z" fill="#CCD3D9"/>
<path d="M375.8 115.6H285.9V118.1H375.8V115.6Z" fill="#CCD3D9"/>
<path d="M333 40H330.9V118.1H333V40Z" fill="#919FAD"/>
<path d="M376.9 73.9H287V79.1H376.9V73.9Z" fill="white"/>
<path d="M290 79.1H287V118.2H290V79.1Z" fill="white"/>
<path d="M295.4 79.1H292.4V118.2H295.4V79.1Z" fill="white"/>
<path d="M300.9 79.1H297.9V118.2H300.9V79.1Z" fill="white"/>
<path d="M306.3 79.1H303.3V118.2H306.3V79.1Z" fill="white"/>
<path d="M311.7 79.1H308.7V118.2H311.7V79.1Z" fill="white"/>
<path d="M317.2 79.1H314.2V118.2H317.2V79.1Z" fill="white"/>
<path d="M322.6 79.1H319.6V118.2H322.6V79.1Z" fill="white"/>
<path d="M328 79.1H325V118.2H328V79.1Z" fill="white"/>
<path d="M333.5 79.1H330.5V118.2H333.5V79.1Z" fill="white"/>
<path d="M338.9 79.1H335.9V118.2H338.9V79.1Z" fill="white"/>
<path d="M344.3 79.1H341.3V118.2H344.3V79.1Z" fill="white"/>
<path d="M349.8 79.1H346.8V118.2H349.8V79.1Z" fill="white"/>
<path d="M355.2 79.1H352.2V118.2H355.2V79.1Z" fill="white"/>
<path d="M360.6 79.1H357.6V118.2H360.6V79.1Z" fill="white"/>
<path d="M366.1 79.1H363.1V118.2H366.1V79.1Z" fill="white"/>
<path d="M371.5 79.1H368.5V118.2H371.5V79.1Z" fill="white"/>
<path d="M376.9 79.1H373.9V118.2H376.9V79.1Z" fill="white"/>
<path d="M117.7 149.4H27.8V227.5H117.7V149.4Z" fill="#BDEEFF"/>
<path d="M117.7 149.4H27.8V151.9H117.7V149.4Z" fill="#CCD3D9"/>
<path d="M116.6 225H26.7V227.5H116.6V225Z" fill="#CCD3D9"/>
<path d="M73.8 149.4H71.7V227.5H73.8V149.4Z" fill="#919FAD"/>
<path d="M117.7 183.3H27.8V188.5H117.7V183.3Z" fill="white"/>
<path d="M30.8 188.5H27.8V227.6H30.8V188.5Z" fill="white"/>
<path d="M36.2 188.5H33.2V227.6H36.2V188.5Z" fill="white"/>
<path d="M41.7 188.5H38.7V227.6H41.7V188.5Z" fill="white"/>
<path d="M47.1 188.5H44.1V227.6H47.1V188.5Z" fill="white"/>
<path d="M52.5 188.5H49.5V227.6H52.5V188.5Z" fill="white"/>
<path d="M58 188.5H55V227.6H58V188.5Z" fill="white"/>
<path d="M63.4 188.5H60.4V227.6H63.4V188.5Z" fill="white"/>
<path d="M68.8 188.5H65.8V227.6H68.8V188.5Z" fill="white"/>
<path d="M74.3 188.5H71.3V227.6H74.3V188.5Z" fill="white"/>
<path d="M79.7 188.5H76.7V227.6H79.7V188.5Z" fill="white"/>
<path d="M85.1 188.5H82.1V227.6H85.1V188.5Z" fill="white"/>
<path d="M90.6 188.5H87.6V227.6H90.6V188.5Z" fill="white"/>
<path d="M96 188.5H93V227.6H96V188.5Z" fill="white"/>
<path d="M101.4 188.5H98.4V227.6H101.4V188.5Z" fill="white"/>
<path d="M106.9 188.5H103.9V227.6H106.9V188.5Z" fill="white"/>
<path d="M112.3 188.5H109.3V227.6H112.3V188.5Z" fill="white"/>
<path d="M117.7 188.5H114.7V227.6H117.7V188.5Z" fill="white"/>
<path d="M248.5 149.4H158.6V227.5H248.5V149.4Z" fill="#BDEEFF"/>
<path d="M248.5 149.4H158.6V151.9H248.5V149.4Z" fill="#CCD3D9"/>
<path d="M247.4 225H157.5V227.5H247.4V225Z" fill="#CCD3D9"/>
<path d="M204.6 149.4H202.5V227.5H204.6V149.4Z" fill="#919FAD"/>
<path d="M248.5 183.3H158.6V188.5H248.5V183.3Z" fill="white"/>
<path d="M161.6 188.5H158.6V227.6H161.6V188.5Z" fill="white"/>
<path d="M167.1 188.5H164.1V227.6H167.1V188.5Z" fill="white"/>
<path d="M172.5 188.5H169.5V227.6H172.5V188.5Z" fill="white"/>
<path d="M177.9 188.5H174.9V227.6H177.9V188.5Z" fill="white"/>
<path d="M183.4 188.5H180.4V227.6H183.4V188.5Z" fill="white"/>
<path d="M188.8 188.5H185.8V227.6H188.8V188.5Z" fill="white"/>
<path d="M194.2 188.5H191.2V227.6H194.2V188.5Z" fill="white"/>
<path d="M199.7 188.5H196.7V227.6H199.7V188.5Z" fill="white"/>
<path d="M205.1 188.5H202.1V227.6H205.1V188.5Z" fill="white"/>
<path d="M210.5 188.5H207.5V227.6H210.5V188.5Z" fill="white"/>
<path d="M216 188.5H213V227.6H216V188.5Z" fill="white"/>
<path d="M221.4 188.5H218.4V227.6H221.4V188.5Z" fill="white"/>
<path d="M226.8 188.5H223.8V227.6H226.8V188.5Z" fill="white"/>
<path d="M232.3 188.5H229.3V227.6H232.3V188.5Z" fill="white"/>
<path d="M237.7 188.5H234.7V227.6H237.7V188.5Z" fill="white"/>
<path d="M243.1 188.5H240.1V227.6H243.1V188.5Z" fill="white"/>
<path d="M248.5 188.5H245.5V227.6H248.5V188.5Z" fill="white"/>
<path d="M376.9 149.4H287V227.5H376.9V149.4Z" fill="#BDEEFF"/>
<path d="M376.9 149.4H287V151.9H376.9V149.4Z" fill="#CCD3D9"/>
<path d="M375.8 225H285.9V227.5H375.8V225Z" fill="#CCD3D9"/>
<path d="M333 149.4H330.9V227.5H333V149.4Z" fill="#919FAD"/>
<path d="M376.9 183.3H287V188.5H376.9V183.3Z" fill="white"/>
<path d="M290 188.5H287V227.6H290V188.5Z" fill="white"/>
<path d="M295.4 188.5H292.4V227.6H295.4V188.5Z" fill="white"/>
<path d="M300.9 188.5H297.9V227.6H300.9V188.5Z" fill="white"/>
<path d="M306.3 188.5H303.3V227.6H306.3V188.5Z" fill="white"/>
<path d="M311.7 188.5H308.7V227.6H311.7V188.5Z" fill="white"/>
<path d="M317.2 188.5H314.2V227.6H317.2V188.5Z" fill="white"/>
<path d="M322.6 188.5H319.6V227.6H322.6V188.5Z" fill="white"/>
<path d="M328 188.5H325V227.6H328V188.5Z" fill="white"/>
<path d="M333.5 188.5H330.5V227.6H333.5V188.5Z" fill="white"/>
<path d="M338.9 188.5H335.9V227.6H338.9V188.5Z" fill="white"/>
<path d="M344.3 188.5H341.3V227.6H344.3V188.5Z" fill="white"/>
<path d="M349.8 188.5H346.8V227.6H349.8V188.5Z" fill="white"/>
<path d="M355.2 188.5H352.2V227.6H355.2V188.5Z" fill="white"/>
<path d="M360.6 188.5H357.6V227.6H360.6V188.5Z" fill="white"/>
<path d="M366.1 188.5H363.1V227.6H366.1V188.5Z" fill="white"/>
<path d="M371.5 188.5H368.5V227.6H371.5V188.5Z" fill="white"/>
<path d="M376.9 188.5H373.9V227.6H376.9V188.5Z" fill="white"/>
<path d="M248.5 245H158.6V323.1H248.5V245Z" fill="#BDEEFF"/>
<path d="M248.5 245H158.6V247.5H248.5V245Z" fill="#CCD3D9"/>
<path d="M247.4 320.6H157.5V323.1H247.4V320.6Z" fill="#CCD3D9"/>
<path d="M204.6 245H202.5V323.1H204.6V245Z" fill="#919FAD"/>
<path d="M248.5 278.9H158.6V284.1H248.5V278.9Z" fill="white"/>
<path d="M161.6 284.1H158.6V323.2H161.6V284.1Z" fill="white"/>
<path d="M167.1 284.1H164.1V323.2H167.1V284.1Z" fill="white"/>
<path d="M172.5 284.1H169.5V323.2H172.5V284.1Z" fill="white"/>
<path d="M177.9 284.1H174.9V323.2H177.9V284.1Z" fill="white"/>
<path d="M183.4 284.1H180.4V323.2H183.4V284.1Z" fill="white"/>
<path d="M188.8 284.1H185.8V323.2H188.8V284.1Z" fill="white"/>
<path d="M194.2 284.1H191.2V323.2H194.2V284.1Z" fill="white"/>
<path d="M199.7 284.1H196.7V323.2H199.7V284.1Z" fill="white"/>
<path d="M205.1 284.1H202.1V323.2H205.1V284.1Z" fill="white"/>
<path d="M210.5 284.1H207.5V323.2H210.5V284.1Z" fill="white"/>
<path d="M216 284.1H213V323.2H216V284.1Z" fill="white"/>
<path d="M221.4 284.1H218.4V323.2H221.4V284.1Z" fill="white"/>
<path d="M226.8 284.1H223.8V323.2H226.8V284.1Z" fill="white"/>
<path d="M232.3 284.1H229.3V323.2H232.3V284.1Z" fill="white"/>
<path d="M237.7 284.1H234.7V323.2H237.7V284.1Z" fill="white"/>
<path d="M243.1 284.1H240.1V323.2H243.1V284.1Z" fill="white"/>
<path d="M248.5 284.1H245.5V323.2H248.5V284.1Z" fill="white"/>
<path d="M376.9 245H287V323.1H376.9V245Z" fill="#BDEEFF"/>
<path d="M376.9 245H287V247.5H376.9V245Z" fill="#CCD3D9"/>
<path d="M375.8 320.6H285.9V323.1H375.8V320.6Z" fill="#CCD3D9"/>
<path d="M333 245H330.9V323.1H333V245Z" fill="#919FAD"/>
<path d="M376.9 278.9H287V284.1H376.9V278.9Z" fill="white"/>
<path d="M290 284.1H287V323.2H290V284.1Z" fill="white"/>
<path d="M295.4 284.1H292.4V323.2H295.4V284.1Z" fill="white"/>
<path d="M300.9 284.1H297.9V323.2H300.9V284.1Z" fill="white"/>
<path d="M306.3 284.1H303.3V323.2H306.3V284.1Z" fill="white"/>
<path d="M311.7 284.1H308.7V323.2H311.7V284.1Z" fill="white"/>
<path d="M317.2 284.1H314.2V323.2H317.2V284.1Z" fill="white"/>
<path d="M322.6 284.1H319.6V323.2H322.6V284.1Z" fill="white"/>
<path d="M328 284.1H325V323.2H328V284.1Z" fill="white"/>
<path d="M333.5 284.1H330.5V323.2H333.5V284.1Z" fill="white"/>
<path d="M338.9 284.1H335.9V323.2H338.9V284.1Z" fill="white"/>
<path d="M344.3 284.1H341.3V323.2H344.3V284.1Z" fill="white"/>
<path d="M349.8 284.1H346.8V323.2H349.8V284.1Z" fill="white"/>
<path d="M355.2 284.1H352.2V323.2H355.2V284.1Z" fill="white"/>
<path d="M360.6 284.1H357.6V323.2H360.6V284.1Z" fill="white"/>
<path d="M366.1 284.1H363.1V323.2H366.1V284.1Z" fill="white"/>
<path d="M371.5 284.1H368.5V323.2H371.5V284.1Z" fill="white"/>
<path d="M376.9 284.1H373.9V323.2H376.9V284.1Z" fill="white"/>
<path d="M98.7 252.6H39V322.9H98.7V252.6Z" fill="#BDEEFF"/>
<path d="M69.5 252.6H68.1V322.9H69.5V252.6Z" fill="#919FAD"/>
<path d="M110.8 236.5H29.3V252.5H110.8V236.5Z" fill="#B3A07F"/>
</svg>
