<svg width="408" height="285" viewBox="0 0 408 285" fill="none" xmlns="http://www.w3.org/2000/svg">
<ellipse cx="202.5" cy="253.5" rx="196.5" ry="31.5" fill="#825642"/>
<path d="M213.594 46.4899H194.636V237.947H213.594V46.4899Z" fill="#C0C0C0"/>
<path d="M204.116 46.4895H196.881V237.946H204.116V46.4895Z" fill="#D2D2D2"/>
<path d="M296.196 251.772L203.989 214.31L111.786 251.772C109.55 252.68 109.663 255.565 111.963 256.335C123.385 260.156 152.102 267.518 203.865 267.544C203.907 267.544 203.946 267.544 203.989 267.544C204.031 267.544 204.07 267.544 204.113 267.544C255.876 267.521 284.596 260.156 296.015 256.335C298.318 255.565 298.431 252.68 296.196 251.772Z" fill="#C0C0C0"/>
<path d="M196.881 217.198L141.249 263.117C149.784 264.48 160.006 265.7 172.048 266.509L204.116 214.179L196.881 217.198Z" fill="#D2D2D2"/>
<g style="mix-blend-mode:multiply">
<path d="M194.702 179.908L194.631 162.582H213.589L213.48 180.226L206.798 185.579C205.115 186.429 203.063 186.426 201.384 185.575L194.702 179.908Z" fill="url(#paint0_linear)"/>
</g>
<path d="M394.887 22.2897H204.273H203.724H13.1098C13.1098 22.2897 0.16011 153.797 0.000674188 165.897C-0.158761 177.997 27.9904 157.937 51.9235 162.713C75.8565 167.49 78.8149 173.858 105.228 177.361C131.641 180.863 146.327 171.629 163.528 169.082C180.683 166.541 183.319 177.303 203.918 177.361C203.947 177.361 203.972 177.361 204 177.361C204.028 177.361 204.053 177.361 204.081 177.361C224.677 177.303 227.313 166.541 244.472 169.082C261.673 171.629 276.359 180.863 302.772 177.361C329.185 173.858 332.143 167.49 356.077 162.713C380.01 157.937 408.159 177.997 407.999 165.897C407.836 153.797 394.887 22.2897 394.887 22.2897Z" fill="url(#paint1_linear)"/>
<path d="M203.741 46.4894C309.112 46.4894 394.532 36.0824 394.532 23.2447C394.532 10.407 309.112 0 203.741 0C98.3697 0 12.9497 10.407 12.9497 23.2447C12.9497 36.0824 98.3697 46.4894 203.741 46.4894Z" fill="#FFCEE7"/>
<defs>
<linearGradient id="paint0_linear" x1="204.11" y1="186.215" x2="204.11" y2="162.583" gradientUnits="userSpaceOnUse">
<stop stop-color="white"/>
<stop offset="0.6821" stop-color="#FFB3BF"/>
</linearGradient>
<linearGradient id="paint1_linear" x1="203.999" y1="22.2897" x2="203.999" y2="178.144" gradientUnits="userSpaceOnUse">
<stop stop-color="#FFE6EB"/>
<stop offset="1" stop-color="#FF9DC7"/>
</linearGradient>
</defs>
</svg>
