<svg width="1220" height="566" viewBox="0 0 1220 566" fill="none" xmlns="http://www.w3.org/2000/svg">
<path d="M96.9806 0.673584L76.8614 20.9419L55.8497 26.7514L48.6133 20.5849L0.197266 53.7218L7.88801 88.595L36.9311 108.344L39.2513 153.668L54.357 168.776L52.0368 189.693L65.9905 214.1L92.7134 236.186L104.331 264.065L182.179 300.09H212.391L217.031 315.198L256.539 336.115H280.942V357.033L300.704 366.331L325.107 354.712L340.213 366.331L349.494 396.547H358.791L369.256 417.465L404.108 427.932L419.213 411.655L450.463 422.317L495.975 421.23L542.59 444.808L564.461 443.039L637.556 524.632L658.405 565.055L682.776 558.11L675.847 473.547L666.064 471.86L676.707 446.739L675.426 457.385L678.411 476.533L689.866 482.83L701.386 471.86L712.452 471.422L710.748 454.821L686.475 423.274L665.642 419.931L662.397 411.542L649.887 405.456L640.963 412.694L649.043 397.797L659.687 399.923L672.44 417.384L696.275 421.635L705.637 412.694L699.682 399.501L720.532 393.123L731.792 374.445L852.621 413.992L872.383 438.382L899.106 443.039L916.532 481.385L945.592 490.684L940.935 515.09L994.381 503.471L1069.91 539.497L1087.33 506.96L1052.48 460.468L1057.14 448.849L1017.63 383.776L1024.59 357.033L1033.89 364.011L1023.73 385.35L1065.95 447.048L1107.23 438.236V416.897L1083.1 397.407L1064.55 407.614L1076.14 377.918L1085.89 374.445L1113.25 414.106L1126.24 371.897L1153.14 382.559L1183.06 356.725L1181.44 314.825L1217.95 300.934L1219.47 269.825L1197.21 249.882L1201.38 226.692L1174.01 187.259L1193.04 177.052L1189.33 162.674L1167.99 162.204L1166.6 145.035L1136.9 147.826L1117.89 139.014L1101.66 142.26L1103.98 126.487L1093.78 120.45L1056.2 132.053L1030.69 112.563L1004.72 130.657L1011.68 156.638L956.008 153.392L939.783 137.148L871.588 143.185L843.762 180.298L825.217 182.147L825.671 171.94L800.619 172.411L760.267 198.391L756.568 131.128H739.402L700.899 164.524L671.207 164.995L638.286 182.618L575.657 182.147L565.451 188.639L555.716 184.468V171.94L541.34 166.374L542.265 156.167L513.969 144.58L487.538 149.222L474.087 125.562L470.826 106.527H457.375L455.071 93.0739L434.66 91.2239L421.663 81.9417L397.082 89.8283L370.181 81.4873L360.9 87.5078L346.524 76.3756L329.358 73.6007L324.263 81.9417H307.097L256.539 50.3951L172.12 34.1675L160.064 38.8086L96.9806 0.673584Z" fill="#00E3C2"/>
</svg>
