<svg width="4800" height="498" viewBox="0 0 4800 498" fill="none" xmlns="http://www.w3.org/2000/svg">
<path d="M1150.06 249.091H800V497.665H1150.06V249.091Z" fill="#FFEFDB"/>
<path d="M1150.06 219H800V247.453H1150.06V219Z" fill="#FFB0B8"/>
<path d="M1150.06 320.826H800V328.586H1150.06V320.826Z" fill="#D5CCC1"/>
<path d="M1150.06 415.152H800V422.912H1150.06V415.152Z" fill="#D5CCC1"/>
<path d="M901.482 253.488H823.969V320.826H901.482V253.488Z" fill="#BDEEFF"/>
<path d="M901.482 253.488H823.969V255.644H901.482V253.488Z" fill="#CCD3D9"/>
<path d="M900.533 318.671H823.021V320.826H900.533V318.671Z" fill="#CCD3D9"/>
<path d="M863.631 253.488H861.82V320.826H863.631V253.488Z" fill="#919FAD"/>
<path d="M901.482 282.717H823.969V287.2H901.482V282.717Z" fill="white"/>
<path d="M826.556 287.2H823.969V320.913H826.556V287.2Z" fill="white"/>
<path d="M831.212 287.2H828.625V320.913H831.212V287.2Z" fill="white"/>
<path d="M835.954 287.2H833.367V320.913H835.954V287.2Z" fill="white"/>
<path d="M840.61 287.2H838.023V320.913H840.61V287.2Z" fill="white"/>
<path d="M845.266 287.2H842.679V320.913H845.266V287.2Z" fill="white"/>
<path d="M850.008 287.2H847.421V320.913H850.008V287.2Z" fill="white"/>
<path d="M854.664 287.2H852.077V320.913H854.664V287.2Z" fill="white"/>
<path d="M859.32 287.2H856.733V320.913H859.32V287.2Z" fill="white"/>
<path d="M864.062 287.2H861.475V320.913H864.062V287.2Z" fill="white"/>
<path d="M868.718 287.2H866.131V320.913H868.718V287.2Z" fill="white"/>
<path d="M873.374 287.2H870.787V320.913H873.374V287.2Z" fill="white"/>
<path d="M878.116 287.2H875.529V320.913H878.116V287.2Z" fill="white"/>
<path d="M882.772 287.2H880.185V320.913H882.772V287.2Z" fill="white"/>
<path d="M887.428 287.2H884.841V320.913H887.428V287.2Z" fill="white"/>
<path d="M892.17 287.2H889.583V320.913H892.17V287.2Z" fill="white"/>
<path d="M896.826 287.2H894.239V320.913H896.826V287.2Z" fill="white"/>
<path d="M901.482 287.2H898.895V320.913H901.482V287.2Z" fill="white"/>
<path d="M1014.26 253.488H936.746V320.826H1014.26V253.488Z" fill="#BDEEFF"/>
<path d="M1014.26 253.488H936.746V255.644H1014.26V253.488Z" fill="#CCD3D9"/>
<path d="M1013.31 318.671H935.797V320.826H1013.31V318.671Z" fill="#CCD3D9"/>
<path d="M976.407 253.488H974.597V320.826H976.407V253.488Z" fill="#919FAD"/>
<path d="M1014.26 282.717H936.746V287.2H1014.26V282.717Z" fill="white"/>
<path d="M939.332 287.2H936.746V320.913H939.332V287.2Z" fill="white"/>
<path d="M944.075 287.2H941.488V320.913H944.075V287.2Z" fill="white"/>
<path d="M948.73 287.2H946.144V320.913H948.73V287.2Z" fill="white"/>
<path d="M953.386 287.2H950.8V320.913H953.386V287.2Z" fill="white"/>
<path d="M958.128 287.2H955.542V320.913H958.128V287.2Z" fill="white"/>
<path d="M962.784 287.2H960.198V320.913H962.784V287.2Z" fill="white"/>
<path d="M967.44 287.2H964.854V320.913H967.44V287.2Z" fill="white"/>
<path d="M972.182 287.2H969.596V320.913H972.182V287.2Z" fill="white"/>
<path d="M976.838 287.2H974.252V320.913H976.838V287.2Z" fill="white"/>
<path d="M981.494 287.2H978.908V320.913H981.494V287.2Z" fill="white"/>
<path d="M986.236 287.2H983.65V320.913H986.236V287.2Z" fill="white"/>
<path d="M990.892 287.2H988.306V320.913H990.892V287.2Z" fill="white"/>
<path d="M995.548 287.2H992.962V320.913H995.548V287.2Z" fill="white"/>
<path d="M1000.29 287.2H997.704V320.913H1000.29V287.2Z" fill="white"/>
<path d="M1004.95 287.2H1002.36V320.913H1004.95V287.2Z" fill="white"/>
<path d="M1009.6 287.2H1007.02V320.913H1009.6V287.2Z" fill="white"/>
<path d="M1014.26 287.2H1011.67V320.913H1014.26V287.2Z" fill="white"/>
<path d="M1124.97 253.488H1047.45V320.826H1124.97V253.488Z" fill="#BDEEFF"/>
<path d="M1124.97 253.488H1047.45V255.644H1124.97V253.488Z" fill="#CCD3D9"/>
<path d="M1124.02 318.671H1046.5V320.826H1124.02V318.671Z" fill="#CCD3D9"/>
<path d="M1087.11 253.488H1085.3V320.826H1087.11V253.488Z" fill="#919FAD"/>
<path d="M1124.97 282.717H1047.45V287.2H1124.97V282.717Z" fill="white"/>
<path d="M1050.04 287.2H1047.45V320.913H1050.04V287.2Z" fill="white"/>
<path d="M1054.7 287.2H1052.11V320.913H1054.7V287.2Z" fill="white"/>
<path d="M1059.44 287.2H1056.85V320.913H1059.44V287.2Z" fill="white"/>
<path d="M1064.09 287.2H1061.51V320.913H1064.09V287.2Z" fill="white"/>
<path d="M1068.75 287.2H1066.16V320.913H1068.75V287.2Z" fill="white"/>
<path d="M1073.49 287.2H1070.9V320.913H1073.49V287.2Z" fill="white"/>
<path d="M1078.15 287.2H1075.56V320.913H1078.15V287.2Z" fill="white"/>
<path d="M1082.8 287.2H1080.22V320.913H1082.8V287.2Z" fill="white"/>
<path d="M1087.55 287.2H1084.96V320.913H1087.55V287.2Z" fill="white"/>
<path d="M1092.2 287.2H1089.61V320.913H1092.2V287.2Z" fill="white"/>
<path d="M1096.86 287.2H1094.27V320.913H1096.86V287.2Z" fill="white"/>
<path d="M1101.6 287.2H1099.01V320.913H1101.6V287.2Z" fill="white"/>
<path d="M1106.26 287.2H1103.67V320.913H1106.26V287.2Z" fill="white"/>
<path d="M1110.91 287.2H1108.32V320.913H1110.91V287.2Z" fill="white"/>
<path d="M1115.65 287.2H1113.07V320.913H1115.65V287.2Z" fill="white"/>
<path d="M1120.31 287.2H1117.72V320.913H1120.31V287.2Z" fill="white"/>
<path d="M1124.97 287.2H1122.38V320.913H1124.97V287.2Z" fill="white"/>
<path d="M901.482 347.813H823.969V415.152H901.482V347.813Z" fill="#BDEEFF"/>
<path d="M901.482 347.813H823.969V349.969H901.482V347.813Z" fill="#CCD3D9"/>
<path d="M900.533 412.996H823.021V415.152H900.533V412.996Z" fill="#CCD3D9"/>
<path d="M863.631 347.813H861.82V415.152H863.631V347.813Z" fill="#919FAD"/>
<path d="M901.482 377.042H823.969V381.526H901.482V377.042Z" fill="white"/>
<path d="M826.556 381.526H823.969V415.238H826.556V381.526Z" fill="white"/>
<path d="M831.212 381.526H828.625V415.238H831.212V381.526Z" fill="white"/>
<path d="M835.954 381.526H833.367V415.238H835.954V381.526Z" fill="white"/>
<path d="M840.61 381.526H838.023V415.238H840.61V381.526Z" fill="white"/>
<path d="M845.266 381.526H842.679V415.238H845.266V381.526Z" fill="white"/>
<path d="M850.008 381.526H847.421V415.238H850.008V381.526Z" fill="white"/>
<path d="M854.664 381.526H852.077V415.238H854.664V381.526Z" fill="white"/>
<path d="M859.32 381.526H856.733V415.238H859.32V381.526Z" fill="white"/>
<path d="M864.062 381.526H861.475V415.238H864.062V381.526Z" fill="white"/>
<path d="M868.718 381.526H866.131V415.238H868.718V381.526Z" fill="white"/>
<path d="M873.374 381.526H870.787V415.238H873.374V381.526Z" fill="white"/>
<path d="M878.116 381.526H875.529V415.238H878.116V381.526Z" fill="white"/>
<path d="M882.772 381.526H880.185V415.238H882.772V381.526Z" fill="white"/>
<path d="M887.428 381.526H884.841V415.238H887.428V381.526Z" fill="white"/>
<path d="M892.17 381.526H889.583V415.238H892.17V381.526Z" fill="white"/>
<path d="M896.826 381.526H894.239V415.238H896.826V381.526Z" fill="white"/>
<path d="M901.482 381.526H898.895V415.238H901.482V381.526Z" fill="white"/>
<path d="M1014.26 347.813H936.746V415.152H1014.26V347.813Z" fill="#BDEEFF"/>
<path d="M1014.26 347.813H936.746V349.969H1014.26V347.813Z" fill="#CCD3D9"/>
<path d="M1013.31 412.996H935.797V415.152H1013.31V412.996Z" fill="#CCD3D9"/>
<path d="M976.407 347.813H974.597V415.152H976.407V347.813Z" fill="#919FAD"/>
<path d="M1014.26 377.042H936.746V381.526H1014.26V377.042Z" fill="white"/>
<path d="M939.332 381.526H936.746V415.238H939.332V381.526Z" fill="white"/>
<path d="M944.075 381.526H941.488V415.238H944.075V381.526Z" fill="white"/>
<path d="M948.73 381.526H946.144V415.238H948.73V381.526Z" fill="white"/>
<path d="M953.386 381.526H950.8V415.238H953.386V381.526Z" fill="white"/>
<path d="M958.128 381.526H955.542V415.238H958.128V381.526Z" fill="white"/>
<path d="M962.784 381.526H960.198V415.238H962.784V381.526Z" fill="white"/>
<path d="M967.44 381.526H964.854V415.238H967.44V381.526Z" fill="white"/>
<path d="M972.182 381.526H969.596V415.238H972.182V381.526Z" fill="white"/>
<path d="M976.838 381.526H974.252V415.238H976.838V381.526Z" fill="white"/>
<path d="M981.494 381.526H978.908V415.238H981.494V381.526Z" fill="white"/>
<path d="M986.236 381.526H983.65V415.238H986.236V381.526Z" fill="white"/>
<path d="M990.892 381.526H988.306V415.238H990.892V381.526Z" fill="white"/>
<path d="M995.548 381.526H992.962V415.238H995.548V381.526Z" fill="white"/>
<path d="M1000.29 381.526H997.704V415.238H1000.29V381.526Z" fill="white"/>
<path d="M1004.95 381.526H1002.36V415.238H1004.95V381.526Z" fill="white"/>
<path d="M1009.6 381.526H1007.02V415.238H1009.6V381.526Z" fill="white"/>
<path d="M1014.26 381.526H1011.67V415.238H1014.26V381.526Z" fill="white"/>
<path d="M1124.97 347.813H1047.45V415.152H1124.97V347.813Z" fill="#BDEEFF"/>
<path d="M1124.97 347.813H1047.45V349.969H1124.97V347.813Z" fill="#CCD3D9"/>
<path d="M1124.02 412.996H1046.5V415.152H1124.02V412.996Z" fill="#CCD3D9"/>
<path d="M1087.11 347.813H1085.3V415.152H1087.11V347.813Z" fill="#919FAD"/>
<path d="M1124.97 377.042H1047.45V381.526H1124.97V377.042Z" fill="white"/>
<path d="M1050.04 381.526H1047.45V415.238H1050.04V381.526Z" fill="white"/>
<path d="M1054.7 381.526H1052.11V415.238H1054.7V381.526Z" fill="white"/>
<path d="M1059.44 381.526H1056.85V415.238H1059.44V381.526Z" fill="white"/>
<path d="M1064.09 381.526H1061.51V415.238H1064.09V381.526Z" fill="white"/>
<path d="M1068.75 381.526H1066.16V415.238H1068.75V381.526Z" fill="white"/>
<path d="M1073.49 381.526H1070.9V415.238H1073.49V381.526Z" fill="white"/>
<path d="M1078.15 381.526H1075.56V415.238H1078.15V381.526Z" fill="white"/>
<path d="M1082.8 381.526H1080.22V415.238H1082.8V381.526Z" fill="white"/>
<path d="M1087.55 381.526H1084.96V415.238H1087.55V381.526Z" fill="white"/>
<path d="M1092.2 381.526H1089.61V415.238H1092.2V381.526Z" fill="white"/>
<path d="M1096.86 381.526H1094.27V415.238H1096.86V381.526Z" fill="white"/>
<path d="M1101.6 381.526H1099.01V415.238H1101.6V381.526Z" fill="white"/>
<path d="M1106.26 381.526H1103.67V415.238H1106.26V381.526Z" fill="white"/>
<path d="M1110.91 381.526H1108.32V415.238H1110.91V381.526Z" fill="white"/>
<path d="M1115.65 381.526H1113.07V415.238H1115.65V381.526Z" fill="white"/>
<path d="M1120.31 381.526H1117.72V415.238H1120.31V381.526Z" fill="white"/>
<path d="M1124.97 381.526H1122.38V415.238H1124.97V381.526Z" fill="white"/>
<path d="M1014.26 430.24H936.746V497.579H1014.26V430.24Z" fill="#BDEEFF"/>
<path d="M1014.26 430.24H936.746V432.396H1014.26V430.24Z" fill="#CCD3D9"/>
<path d="M1013.31 495.423H935.797V497.579H1013.31V495.423Z" fill="#CCD3D9"/>
<path d="M976.407 430.24H974.597V497.579H976.407V430.24Z" fill="#919FAD"/>
<path d="M1014.26 459.469H936.746V463.953H1014.26V459.469Z" fill="white"/>
<path d="M939.332 463.953H936.746V497.665H939.332V463.953Z" fill="white"/>
<path d="M944.075 463.953H941.488V497.665H944.075V463.953Z" fill="white"/>
<path d="M948.73 463.953H946.144V497.665H948.73V463.953Z" fill="white"/>
<path d="M953.386 463.953H950.8V497.665H953.386V463.953Z" fill="white"/>
<path d="M958.128 463.953H955.542V497.665H958.128V463.953Z" fill="white"/>
<path d="M962.784 463.953H960.198V497.665H962.784V463.953Z" fill="white"/>
<path d="M967.44 463.953H964.854V497.665H967.44V463.953Z" fill="white"/>
<path d="M972.182 463.953H969.596V497.665H972.182V463.953Z" fill="white"/>
<path d="M976.838 463.953H974.252V497.665H976.838V463.953Z" fill="white"/>
<path d="M981.494 463.953H978.908V497.665H981.494V463.953Z" fill="white"/>
<path d="M986.236 463.953H983.65V497.665H986.236V463.953Z" fill="white"/>
<path d="M990.892 463.953H988.306V497.665H990.892V463.953Z" fill="white"/>
<path d="M995.548 463.953H992.962V497.665H995.548V463.953Z" fill="white"/>
<path d="M1000.29 463.953H997.704V497.665H1000.29V463.953Z" fill="white"/>
<path d="M1004.95 463.953H1002.36V497.665H1004.95V463.953Z" fill="white"/>
<path d="M1009.6 463.953H1007.02V497.665H1009.6V463.953Z" fill="white"/>
<path d="M1014.26 463.953H1011.67V497.665H1014.26V463.953Z" fill="white"/>
<path d="M1124.97 430.24H1047.45V497.579H1124.97V430.24Z" fill="#BDEEFF"/>
<path d="M1124.97 430.24H1047.45V432.396H1124.97V430.24Z" fill="#CCD3D9"/>
<path d="M1124.02 495.423H1046.5V497.579H1124.02V495.423Z" fill="#CCD3D9"/>
<path d="M1087.11 430.24H1085.3V497.579H1087.11V430.24Z" fill="#919FAD"/>
<path d="M1124.97 459.469H1047.45V463.953H1124.97V459.469Z" fill="white"/>
<path d="M1050.04 463.953H1047.45V497.665H1050.04V463.953Z" fill="white"/>
<path d="M1054.7 463.953H1052.11V497.665H1054.7V463.953Z" fill="white"/>
<path d="M1059.44 463.953H1056.85V497.665H1059.44V463.953Z" fill="white"/>
<path d="M1064.09 463.953H1061.51V497.665H1064.09V463.953Z" fill="white"/>
<path d="M1068.75 463.953H1066.16V497.665H1068.75V463.953Z" fill="white"/>
<path d="M1073.49 463.953H1070.9V497.665H1073.49V463.953Z" fill="white"/>
<path d="M1078.15 463.953H1075.56V497.665H1078.15V463.953Z" fill="white"/>
<path d="M1082.8 463.953H1080.22V497.665H1082.8V463.953Z" fill="white"/>
<path d="M1087.55 463.953H1084.96V497.665H1087.55V463.953Z" fill="white"/>
<path d="M1092.2 463.953H1089.61V497.665H1092.2V463.953Z" fill="white"/>
<path d="M1096.86 463.953H1094.27V497.665H1096.86V463.953Z" fill="white"/>
<path d="M1101.6 463.953H1099.01V497.665H1101.6V463.953Z" fill="white"/>
<path d="M1106.26 463.953H1103.67V497.665H1106.26V463.953Z" fill="white"/>
<path d="M1110.91 463.953H1108.32V497.665H1110.91V463.953Z" fill="white"/>
<path d="M1115.65 463.953H1113.07V497.665H1115.65V463.953Z" fill="white"/>
<path d="M1120.31 463.953H1117.72V497.665H1120.31V463.953Z" fill="white"/>
<path d="M1124.97 463.953H1122.38V497.665H1124.97V463.953Z" fill="white"/>
<path d="M885.1 436.793H833.626V497.406H885.1V436.793Z" fill="#BDEEFF"/>
<path d="M859.923 436.793H858.716V497.406H859.923V436.793Z" fill="#919FAD"/>
<path d="M895.532 422.912H825.263V436.707H895.532V422.912Z" fill="#B3A07F"/>
<path d="M3195.33 249.091H2845.28V497.665H3195.33V249.091Z" fill="#FFEFDB"/>
<path d="M3195.33 219H2845.28V247.453H3195.33V219Z" fill="#FFB0B8"/>
<path d="M3195.33 320.827H2845.28V328.586H3195.33V320.827Z" fill="#D5CCC1"/>
<path d="M3195.33 415.152H2845.28V422.912H3195.33V415.152Z" fill="#D5CCC1"/>
<path d="M2946.76 253.488H2869.25V320.827H2946.76V253.488Z" fill="#BDEEFF"/>
<path d="M2946.76 253.488H2869.25V255.644H2946.76V253.488Z" fill="#CCD3D9"/>
<path d="M2945.81 318.671H2868.3V320.827H2945.81V318.671Z" fill="#CCD3D9"/>
<path d="M2908.91 253.488H2907.1V320.827H2908.91V253.488Z" fill="#919FAD"/>
<path d="M2946.76 282.717H2869.25V287.201H2946.76V282.717Z" fill="white"/>
<path d="M2871.83 287.201H2869.25V320.913H2871.83V287.201Z" fill="white"/>
<path d="M2876.49 287.201H2873.9V320.913H2876.49V287.201Z" fill="white"/>
<path d="M2881.23 287.201H2878.64V320.913H2881.23V287.201Z" fill="white"/>
<path d="M2885.89 287.201H2883.3V320.913H2885.89V287.201Z" fill="white"/>
<path d="M2890.54 287.201H2887.96V320.913H2890.54V287.201Z" fill="white"/>
<path d="M2895.29 287.201H2892.7V320.913H2895.29V287.201Z" fill="white"/>
<path d="M2899.94 287.201H2897.35V320.913H2899.94V287.201Z" fill="white"/>
<path d="M2904.6 287.201H2902.01V320.913H2904.6V287.201Z" fill="white"/>
<path d="M2909.34 287.201H2906.75V320.913H2909.34V287.201Z" fill="white"/>
<path d="M2914 287.201H2911.41V320.913H2914V287.201Z" fill="white"/>
<path d="M2918.65 287.201H2916.06V320.913H2918.65V287.201Z" fill="white"/>
<path d="M2923.39 287.201H2920.81V320.913H2923.39V287.201Z" fill="white"/>
<path d="M2928.05 287.201H2925.46V320.913H2928.05V287.201Z" fill="white"/>
<path d="M2932.71 287.201H2930.12V320.913H2932.71V287.201Z" fill="white"/>
<path d="M2937.45 287.201H2934.86V320.913H2937.45V287.201Z" fill="white"/>
<path d="M2942.1 287.201H2939.52V320.913H2942.1V287.201Z" fill="white"/>
<path d="M2946.76 287.201H2944.17V320.913H2946.76V287.201Z" fill="white"/>
<path d="M3059.54 253.488H2982.02V320.827H3059.54V253.488Z" fill="#BDEEFF"/>
<path d="M3059.54 253.488H2982.02V255.644H3059.54V253.488Z" fill="#CCD3D9"/>
<path d="M3058.59 318.671H2981.07V320.827H3058.59V318.671Z" fill="#CCD3D9"/>
<path d="M3021.68 253.488H3019.87V320.827H3021.68V253.488Z" fill="#919FAD"/>
<path d="M3059.54 282.717H2982.02V287.201H3059.54V282.717Z" fill="white"/>
<path d="M2984.61 287.201H2982.02V320.913H2984.61V287.201Z" fill="white"/>
<path d="M2989.35 287.201H2986.77V320.913H2989.35V287.201Z" fill="white"/>
<path d="M2994.01 287.201H2991.42V320.913H2994.01V287.201Z" fill="white"/>
<path d="M2998.66 287.201H2996.08V320.913H2998.66V287.201Z" fill="white"/>
<path d="M3003.41 287.201H3000.82V320.913H3003.41V287.201Z" fill="white"/>
<path d="M3008.06 287.201H3005.48V320.913H3008.06V287.201Z" fill="white"/>
<path d="M3012.72 287.201H3010.13V320.913H3012.72V287.201Z" fill="white"/>
<path d="M3017.46 287.201H3014.87V320.913H3017.46V287.201Z" fill="white"/>
<path d="M3022.12 287.201H3019.53V320.913H3022.12V287.201Z" fill="white"/>
<path d="M3026.77 287.201H3024.19V320.913H3026.77V287.201Z" fill="white"/>
<path d="M3031.51 287.201H3028.93V320.913H3031.51V287.201Z" fill="white"/>
<path d="M3036.17 287.201H3033.58V320.913H3036.17V287.201Z" fill="white"/>
<path d="M3040.83 287.201H3038.24V320.913H3040.83V287.201Z" fill="white"/>
<path d="M3045.57 287.201H3042.98V320.913H3045.57V287.201Z" fill="white"/>
<path d="M3050.22 287.201H3047.64V320.913H3050.22V287.201Z" fill="white"/>
<path d="M3054.88 287.201H3052.29V320.913H3054.88V287.201Z" fill="white"/>
<path d="M3059.54 287.201H3056.95V320.913H3059.54V287.201Z" fill="white"/>
<path d="M3170.24 253.488H3092.73V320.827H3170.24V253.488Z" fill="#BDEEFF"/>
<path d="M3170.24 253.488H3092.73V255.644H3170.24V253.488Z" fill="#CCD3D9"/>
<path d="M3169.29 318.671H3091.78V320.827H3169.29V318.671Z" fill="#CCD3D9"/>
<path d="M3132.39 253.488H3130.58V320.827H3132.39V253.488Z" fill="#919FAD"/>
<path d="M3170.24 282.717H3092.73V287.201H3170.24V282.717Z" fill="white"/>
<path d="M3095.32 287.201H3092.73V320.913H3095.32V287.201Z" fill="white"/>
<path d="M3099.97 287.201H3097.39V320.913H3099.97V287.201Z" fill="white"/>
<path d="M3104.72 287.201H3102.13V320.913H3104.72V287.201Z" fill="white"/>
<path d="M3109.37 287.201H3106.78V320.913H3109.37V287.201Z" fill="white"/>
<path d="M3114.03 287.201H3111.44V320.913H3114.03V287.201Z" fill="white"/>
<path d="M3118.77 287.201H3116.18V320.913H3118.77V287.201Z" fill="white"/>
<path d="M3123.43 287.201H3120.84V320.913H3123.43V287.201Z" fill="white"/>
<path d="M3128.08 287.201H3125.49V320.913H3128.08V287.201Z" fill="white"/>
<path d="M3132.82 287.201H3130.24V320.913H3132.82V287.201Z" fill="white"/>
<path d="M3137.48 287.201H3134.89V320.913H3137.48V287.201Z" fill="white"/>
<path d="M3142.13 287.201H3139.55V320.913H3142.13V287.201Z" fill="white"/>
<path d="M3146.88 287.201H3144.29V320.913H3146.88V287.201Z" fill="white"/>
<path d="M3151.53 287.201H3148.95V320.913H3151.53V287.201Z" fill="white"/>
<path d="M3156.19 287.201H3153.6V320.913H3156.19V287.201Z" fill="white"/>
<path d="M3160.93 287.201H3158.34V320.913H3160.93V287.201Z" fill="white"/>
<path d="M3165.59 287.201H3163V320.913H3165.59V287.201Z" fill="white"/>
<path d="M3170.24 287.201H3167.66V320.913H3170.24V287.201Z" fill="white"/>
<path d="M2946.76 347.814H2869.25V415.152H2946.76V347.814Z" fill="#BDEEFF"/>
<path d="M2946.76 347.814H2869.25V349.969H2946.76V347.814Z" fill="#CCD3D9"/>
<path d="M2945.81 412.996H2868.3V415.152H2945.81V412.996Z" fill="#CCD3D9"/>
<path d="M2908.91 347.814H2907.1V415.152H2908.91V347.814Z" fill="#919FAD"/>
<path d="M2946.76 377.042H2869.25V381.526H2946.76V377.042Z" fill="white"/>
<path d="M2871.83 381.526H2869.25V415.238H2871.83V381.526Z" fill="white"/>
<path d="M2876.49 381.526H2873.9V415.238H2876.49V381.526Z" fill="white"/>
<path d="M2881.23 381.526H2878.64V415.238H2881.23V381.526Z" fill="white"/>
<path d="M2885.89 381.526H2883.3V415.238H2885.89V381.526Z" fill="white"/>
<path d="M2890.54 381.526H2887.96V415.238H2890.54V381.526Z" fill="white"/>
<path d="M2895.29 381.526H2892.7V415.238H2895.29V381.526Z" fill="white"/>
<path d="M2899.94 381.526H2897.35V415.238H2899.94V381.526Z" fill="white"/>
<path d="M2904.6 381.526H2902.01V415.238H2904.6V381.526Z" fill="white"/>
<path d="M2909.34 381.526H2906.75V415.238H2909.34V381.526Z" fill="white"/>
<path d="M2914 381.526H2911.41V415.238H2914V381.526Z" fill="white"/>
<path d="M2918.65 381.526H2916.06V415.238H2918.65V381.526Z" fill="white"/>
<path d="M2923.39 381.526H2920.81V415.238H2923.39V381.526Z" fill="white"/>
<path d="M2928.05 381.526H2925.46V415.238H2928.05V381.526Z" fill="white"/>
<path d="M2932.71 381.526H2930.12V415.238H2932.71V381.526Z" fill="white"/>
<path d="M2937.45 381.526H2934.86V415.238H2937.45V381.526Z" fill="white"/>
<path d="M2942.1 381.526H2939.52V415.238H2942.1V381.526Z" fill="white"/>
<path d="M2946.76 381.526H2944.17V415.238H2946.76V381.526Z" fill="white"/>
<path d="M3059.54 347.814H2982.02V415.152H3059.54V347.814Z" fill="#BDEEFF"/>
<path d="M3059.54 347.814H2982.02V349.969H3059.54V347.814Z" fill="#CCD3D9"/>
<path d="M3058.59 412.996H2981.07V415.152H3058.59V412.996Z" fill="#CCD3D9"/>
<path d="M3021.68 347.814H3019.87V415.152H3021.68V347.814Z" fill="#919FAD"/>
<path d="M3059.54 377.042H2982.02V381.526H3059.54V377.042Z" fill="white"/>
<path d="M2984.61 381.526H2982.02V415.238H2984.61V381.526Z" fill="white"/>
<path d="M2989.35 381.526H2986.77V415.238H2989.35V381.526Z" fill="white"/>
<path d="M2994.01 381.526H2991.42V415.238H2994.01V381.526Z" fill="white"/>
<path d="M2998.66 381.526H2996.08V415.238H2998.66V381.526Z" fill="white"/>
<path d="M3003.41 381.526H3000.82V415.238H3003.41V381.526Z" fill="white"/>
<path d="M3008.06 381.526H3005.48V415.238H3008.06V381.526Z" fill="white"/>
<path d="M3012.72 381.526H3010.13V415.238H3012.72V381.526Z" fill="white"/>
<path d="M3017.46 381.526H3014.87V415.238H3017.46V381.526Z" fill="white"/>
<path d="M3022.12 381.526H3019.53V415.238H3022.12V381.526Z" fill="white"/>
<path d="M3026.77 381.526H3024.19V415.238H3026.77V381.526Z" fill="white"/>
<path d="M3031.51 381.526H3028.93V415.238H3031.51V381.526Z" fill="white"/>
<path d="M3036.17 381.526H3033.58V415.238H3036.17V381.526Z" fill="white"/>
<path d="M3040.83 381.526H3038.24V415.238H3040.83V381.526Z" fill="white"/>
<path d="M3045.57 381.526H3042.98V415.238H3045.57V381.526Z" fill="white"/>
<path d="M3050.22 381.526H3047.64V415.238H3050.22V381.526Z" fill="white"/>
<path d="M3054.88 381.526H3052.29V415.238H3054.88V381.526Z" fill="white"/>
<path d="M3059.54 381.526H3056.95V415.238H3059.54V381.526Z" fill="white"/>
<path d="M3170.24 347.814H3092.73V415.152H3170.24V347.814Z" fill="#BDEEFF"/>
<path d="M3170.24 347.814H3092.73V349.969H3170.24V347.814Z" fill="#CCD3D9"/>
<path d="M3169.29 412.996H3091.78V415.152H3169.29V412.996Z" fill="#CCD3D9"/>
<path d="M3132.39 347.814H3130.58V415.152H3132.39V347.814Z" fill="#919FAD"/>
<path d="M3170.24 377.042H3092.73V381.526H3170.24V377.042Z" fill="white"/>
<path d="M3095.32 381.526H3092.73V415.238H3095.32V381.526Z" fill="white"/>
<path d="M3099.97 381.526H3097.39V415.238H3099.97V381.526Z" fill="white"/>
<path d="M3104.72 381.526H3102.13V415.238H3104.72V381.526Z" fill="white"/>
<path d="M3109.37 381.526H3106.78V415.238H3109.37V381.526Z" fill="white"/>
<path d="M3114.03 381.526H3111.44V415.238H3114.03V381.526Z" fill="white"/>
<path d="M3118.77 381.526H3116.18V415.238H3118.77V381.526Z" fill="white"/>
<path d="M3123.43 381.526H3120.84V415.238H3123.43V381.526Z" fill="white"/>
<path d="M3128.08 381.526H3125.49V415.238H3128.08V381.526Z" fill="white"/>
<path d="M3132.82 381.526H3130.24V415.238H3132.82V381.526Z" fill="white"/>
<path d="M3137.48 381.526H3134.89V415.238H3137.48V381.526Z" fill="white"/>
<path d="M3142.13 381.526H3139.55V415.238H3142.13V381.526Z" fill="white"/>
<path d="M3146.88 381.526H3144.29V415.238H3146.88V381.526Z" fill="white"/>
<path d="M3151.53 381.526H3148.95V415.238H3151.53V381.526Z" fill="white"/>
<path d="M3156.19 381.526H3153.6V415.238H3156.19V381.526Z" fill="white"/>
<path d="M3160.93 381.526H3158.34V415.238H3160.93V381.526Z" fill="white"/>
<path d="M3165.59 381.526H3163V415.238H3165.59V381.526Z" fill="white"/>
<path d="M3170.24 381.526H3167.66V415.238H3170.24V381.526Z" fill="white"/>
<path d="M3059.54 430.24H2982.02V497.579H3059.54V430.24Z" fill="#BDEEFF"/>
<path d="M3059.54 430.24H2982.02V432.396H3059.54V430.24Z" fill="#CCD3D9"/>
<path d="M3058.59 495.423H2981.07V497.579H3058.59V495.423Z" fill="#CCD3D9"/>
<path d="M3021.68 430.24H3019.87V497.579H3021.68V430.24Z" fill="#919FAD"/>
<path d="M3059.54 459.469H2982.02V463.953H3059.54V459.469Z" fill="white"/>
<path d="M2984.61 463.953H2982.02V497.665H2984.61V463.953Z" fill="white"/>
<path d="M2989.35 463.953H2986.77V497.665H2989.35V463.953Z" fill="white"/>
<path d="M2994.01 463.953H2991.42V497.665H2994.01V463.953Z" fill="white"/>
<path d="M2998.66 463.953H2996.08V497.665H2998.66V463.953Z" fill="white"/>
<path d="M3003.41 463.953H3000.82V497.665H3003.41V463.953Z" fill="white"/>
<path d="M3008.06 463.953H3005.48V497.665H3008.06V463.953Z" fill="white"/>
<path d="M3012.72 463.953H3010.13V497.665H3012.72V463.953Z" fill="white"/>
<path d="M3017.46 463.953H3014.87V497.665H3017.46V463.953Z" fill="white"/>
<path d="M3022.12 463.953H3019.53V497.665H3022.12V463.953Z" fill="white"/>
<path d="M3026.77 463.953H3024.19V497.665H3026.77V463.953Z" fill="white"/>
<path d="M3031.51 463.953H3028.93V497.665H3031.51V463.953Z" fill="white"/>
<path d="M3036.17 463.953H3033.58V497.665H3036.17V463.953Z" fill="white"/>
<path d="M3040.83 463.953H3038.24V497.665H3040.83V463.953Z" fill="white"/>
<path d="M3045.57 463.953H3042.98V497.665H3045.57V463.953Z" fill="white"/>
<path d="M3050.22 463.953H3047.64V497.665H3050.22V463.953Z" fill="white"/>
<path d="M3054.88 463.953H3052.29V497.665H3054.88V463.953Z" fill="white"/>
<path d="M3059.54 463.953H3056.95V497.665H3059.54V463.953Z" fill="white"/>
<path d="M3170.24 430.24H3092.73V497.579H3170.24V430.24Z" fill="#BDEEFF"/>
<path d="M3170.24 430.24H3092.73V432.396H3170.24V430.24Z" fill="#CCD3D9"/>
<path d="M3169.29 495.423H3091.78V497.579H3169.29V495.423Z" fill="#CCD3D9"/>
<path d="M3132.39 430.24H3130.58V497.579H3132.39V430.24Z" fill="#919FAD"/>
<path d="M3170.24 459.469H3092.73V463.953H3170.24V459.469Z" fill="white"/>
<path d="M3095.32 463.953H3092.73V497.665H3095.32V463.953Z" fill="white"/>
<path d="M3099.97 463.953H3097.39V497.665H3099.97V463.953Z" fill="white"/>
<path d="M3104.72 463.953H3102.13V497.665H3104.72V463.953Z" fill="white"/>
<path d="M3109.37 463.953H3106.78V497.665H3109.37V463.953Z" fill="white"/>
<path d="M3114.03 463.953H3111.44V497.665H3114.03V463.953Z" fill="white"/>
<path d="M3118.77 463.953H3116.18V497.665H3118.77V463.953Z" fill="white"/>
<path d="M3123.43 463.953H3120.84V497.665H3123.43V463.953Z" fill="white"/>
<path d="M3128.08 463.953H3125.49V497.665H3128.08V463.953Z" fill="white"/>
<path d="M3132.82 463.953H3130.24V497.665H3132.82V463.953Z" fill="white"/>
<path d="M3137.48 463.953H3134.89V497.665H3137.48V463.953Z" fill="white"/>
<path d="M3142.13 463.953H3139.55V497.665H3142.13V463.953Z" fill="white"/>
<path d="M3146.88 463.953H3144.29V497.665H3146.88V463.953Z" fill="white"/>
<path d="M3151.53 463.953H3148.95V497.665H3151.53V463.953Z" fill="white"/>
<path d="M3156.19 463.953H3153.6V497.665H3156.19V463.953Z" fill="white"/>
<path d="M3160.93 463.953H3158.34V497.665H3160.93V463.953Z" fill="white"/>
<path d="M3165.59 463.953H3163V497.665H3165.59V463.953Z" fill="white"/>
<path d="M3170.24 463.953H3167.66V497.665H3170.24V463.953Z" fill="white"/>
<path d="M2930.38 436.793H2878.9V497.406H2930.38V436.793Z" fill="#BDEEFF"/>
<path d="M2905.2 436.793H2903.99V497.406H2905.2V436.793Z" fill="#919FAD"/>
<path d="M2940.81 422.912H2870.54V436.707H2940.81V422.912Z" fill="#B3A07F"/>
<path d="M2290.02 249.091H1939.96V497.665H2290.02V249.091Z" fill="#FFEFDB"/>
<path d="M2290.02 219H1939.96V247.453H2290.02V219Z" fill="#FFB0B8"/>
<path d="M2290.02 320.827H1939.96V328.586H2290.02V320.827Z" fill="#D5CCC1"/>
<path d="M2290.02 415.152H1939.96V422.912H2290.02V415.152Z" fill="#D5CCC1"/>
<path d="M2041.44 253.488H1963.93V320.827H2041.44V253.488Z" fill="#BDEEFF"/>
<path d="M2041.44 253.488H1963.93V255.644H2041.44V253.488Z" fill="#CCD3D9"/>
<path d="M2040.5 318.671H1962.98V320.827H2040.5V318.671Z" fill="#CCD3D9"/>
<path d="M2003.59 253.488H2001.78V320.827H2003.59V253.488Z" fill="#919FAD"/>
<path d="M2041.44 282.717H1963.93V287.201H2041.44V282.717Z" fill="white"/>
<path d="M1966.52 287.201H1963.93V320.913H1966.52V287.201Z" fill="white"/>
<path d="M1971.17 287.201H1968.59V320.913H1971.17V287.201Z" fill="white"/>
<path d="M1975.92 287.201H1973.33V320.913H1975.92V287.201Z" fill="white"/>
<path d="M1980.57 287.201H1977.99V320.913H1980.57V287.201Z" fill="white"/>
<path d="M1985.23 287.201H1982.64V320.913H1985.23V287.201Z" fill="white"/>
<path d="M1989.97 287.201H1987.38V320.913H1989.97V287.201Z" fill="white"/>
<path d="M1994.63 287.201H1992.04V320.913H1994.63V287.201Z" fill="white"/>
<path d="M1999.28 287.201H1996.7V320.913H1999.28V287.201Z" fill="white"/>
<path d="M2004.02 287.201H2001.44V320.913H2004.02V287.201Z" fill="white"/>
<path d="M2008.68 287.201H2006.09V320.913H2008.68V287.201Z" fill="white"/>
<path d="M2013.34 287.201H2010.75V320.913H2013.34V287.201Z" fill="white"/>
<path d="M2018.08 287.201H2015.49V320.913H2018.08V287.201Z" fill="white"/>
<path d="M2022.73 287.201H2020.15V320.913H2022.73V287.201Z" fill="white"/>
<path d="M2027.39 287.201H2024.8V320.913H2027.39V287.201Z" fill="white"/>
<path d="M2032.13 287.201H2029.55V320.913H2032.13V287.201Z" fill="white"/>
<path d="M2036.79 287.201H2034.2V320.913H2036.79V287.201Z" fill="white"/>
<path d="M2041.44 287.201H2038.86V320.913H2041.44V287.201Z" fill="white"/>
<path d="M2154.22 253.488H2076.71V320.827H2154.22V253.488Z" fill="#BDEEFF"/>
<path d="M2154.22 253.488H2076.71V255.644H2154.22V253.488Z" fill="#CCD3D9"/>
<path d="M2153.27 318.671H2075.76V320.827H2153.27V318.671Z" fill="#CCD3D9"/>
<path d="M2116.37 253.488H2114.56V320.827H2116.37V253.488Z" fill="#919FAD"/>
<path d="M2154.22 282.717H2076.71V287.201H2154.22V282.717Z" fill="white"/>
<path d="M2079.29 287.201H2076.71V320.913H2079.29V287.201Z" fill="white"/>
<path d="M2084.04 287.201H2081.45V320.913H2084.04V287.201Z" fill="white"/>
<path d="M2088.69 287.201H2086.11V320.913H2088.69V287.201Z" fill="white"/>
<path d="M2093.35 287.201H2090.76V320.913H2093.35V287.201Z" fill="white"/>
<path d="M2098.09 287.201H2095.5V320.913H2098.09V287.201Z" fill="white"/>
<path d="M2102.75 287.201H2100.16V320.913H2102.75V287.201Z" fill="white"/>
<path d="M2107.4 287.201H2104.82V320.913H2107.4V287.201Z" fill="white"/>
<path d="M2112.14 287.201H2109.56V320.913H2112.14V287.201Z" fill="white"/>
<path d="M2116.8 287.201H2114.21V320.913H2116.8V287.201Z" fill="white"/>
<path d="M2121.46 287.201H2118.87V320.913H2121.46V287.201Z" fill="white"/>
<path d="M2126.2 287.201H2123.61V320.913H2126.2V287.201Z" fill="white"/>
<path d="M2130.85 287.201H2128.27V320.913H2130.85V287.201Z" fill="white"/>
<path d="M2135.51 287.201H2132.92V320.913H2135.51V287.201Z" fill="white"/>
<path d="M2140.25 287.201H2137.67V320.913H2140.25V287.201Z" fill="white"/>
<path d="M2144.91 287.201H2142.32V320.913H2144.91V287.201Z" fill="white"/>
<path d="M2149.56 287.201H2146.98V320.913H2149.56V287.201Z" fill="white"/>
<path d="M2154.22 287.201H2151.63V320.913H2154.22V287.201Z" fill="white"/>
<path d="M2264.93 253.488H2187.41V320.827H2264.93V253.488Z" fill="#BDEEFF"/>
<path d="M2264.93 253.488H2187.41V255.644H2264.93V253.488Z" fill="#CCD3D9"/>
<path d="M2263.98 318.671H2186.47V320.827H2263.98V318.671Z" fill="#CCD3D9"/>
<path d="M2227.08 253.488H2225.27V320.827H2227.08V253.488Z" fill="#919FAD"/>
<path d="M2264.93 282.717H2187.41V287.201H2264.93V282.717Z" fill="white"/>
<path d="M2190 287.201H2187.41V320.913H2190V287.201Z" fill="white"/>
<path d="M2194.66 287.201H2192.07V320.913H2194.66V287.201Z" fill="white"/>
<path d="M2199.4 287.201H2196.81V320.913H2199.4V287.201Z" fill="white"/>
<path d="M2204.06 287.201H2201.47V320.913H2204.06V287.201Z" fill="white"/>
<path d="M2208.71 287.201H2206.12V320.913H2208.71V287.201Z" fill="white"/>
<path d="M2213.45 287.201H2210.87V320.913H2213.45V287.201Z" fill="white"/>
<path d="M2218.11 287.201H2215.52V320.913H2218.11V287.201Z" fill="white"/>
<path d="M2222.77 287.201H2220.18V320.913H2222.77V287.201Z" fill="white"/>
<path d="M2227.51 287.201H2224.92V320.913H2227.51V287.201Z" fill="white"/>
<path d="M2232.16 287.201H2229.58V320.913H2232.16V287.201Z" fill="white"/>
<path d="M2236.82 287.201H2234.23V320.913H2236.82V287.201Z" fill="white"/>
<path d="M2241.56 287.201H2238.97V320.913H2241.56V287.201Z" fill="white"/>
<path d="M2246.22 287.201H2243.63V320.913H2246.22V287.201Z" fill="white"/>
<path d="M2250.87 287.201H2248.29V320.913H2250.87V287.201Z" fill="white"/>
<path d="M2255.62 287.201H2253.03V320.913H2255.62V287.201Z" fill="white"/>
<path d="M2260.27 287.201H2257.68V320.913H2260.27V287.201Z" fill="white"/>
<path d="M2264.93 287.201H2262.34V320.913H2264.93V287.201Z" fill="white"/>
<path d="M2041.44 347.814H1963.93V415.152H2041.44V347.814Z" fill="#BDEEFF"/>
<path d="M2041.44 347.814H1963.93V349.969H2041.44V347.814Z" fill="#CCD3D9"/>
<path d="M2040.5 412.996H1962.98V415.152H2040.5V412.996Z" fill="#CCD3D9"/>
<path d="M2003.59 347.814H2001.78V415.152H2003.59V347.814Z" fill="#919FAD"/>
<path d="M2041.44 377.042H1963.93V381.526H2041.44V377.042Z" fill="white"/>
<path d="M1966.52 381.526H1963.93V415.238H1966.52V381.526Z" fill="white"/>
<path d="M1971.17 381.526H1968.59V415.238H1971.17V381.526Z" fill="white"/>
<path d="M1975.92 381.526H1973.33V415.238H1975.92V381.526Z" fill="white"/>
<path d="M1980.57 381.526H1977.99V415.238H1980.57V381.526Z" fill="white"/>
<path d="M1985.23 381.526H1982.64V415.238H1985.23V381.526Z" fill="white"/>
<path d="M1989.97 381.526H1987.38V415.238H1989.97V381.526Z" fill="white"/>
<path d="M1994.63 381.526H1992.04V415.238H1994.63V381.526Z" fill="white"/>
<path d="M1999.28 381.526H1996.7V415.238H1999.28V381.526Z" fill="white"/>
<path d="M2004.02 381.526H2001.44V415.238H2004.02V381.526Z" fill="white"/>
<path d="M2008.68 381.526H2006.09V415.238H2008.68V381.526Z" fill="white"/>
<path d="M2013.34 381.526H2010.75V415.238H2013.34V381.526Z" fill="white"/>
<path d="M2018.08 381.526H2015.49V415.238H2018.08V381.526Z" fill="white"/>
<path d="M2022.73 381.526H2020.15V415.238H2022.73V381.526Z" fill="white"/>
<path d="M2027.39 381.526H2024.8V415.238H2027.39V381.526Z" fill="white"/>
<path d="M2032.13 381.526H2029.55V415.238H2032.13V381.526Z" fill="white"/>
<path d="M2036.79 381.526H2034.2V415.238H2036.79V381.526Z" fill="white"/>
<path d="M2041.44 381.526H2038.86V415.238H2041.44V381.526Z" fill="white"/>
<path d="M2154.22 347.814H2076.71V415.152H2154.22V347.814Z" fill="#BDEEFF"/>
<path d="M2154.22 347.814H2076.71V349.969H2154.22V347.814Z" fill="#CCD3D9"/>
<path d="M2153.27 412.996H2075.76V415.152H2153.27V412.996Z" fill="#CCD3D9"/>
<path d="M2116.37 347.814H2114.56V415.152H2116.37V347.814Z" fill="#919FAD"/>
<path d="M2154.22 377.042H2076.71V381.526H2154.22V377.042Z" fill="white"/>
<path d="M2079.29 381.526H2076.71V415.238H2079.29V381.526Z" fill="white"/>
<path d="M2084.04 381.526H2081.45V415.238H2084.04V381.526Z" fill="white"/>
<path d="M2088.69 381.526H2086.11V415.238H2088.69V381.526Z" fill="white"/>
<path d="M2093.35 381.526H2090.76V415.238H2093.35V381.526Z" fill="white"/>
<path d="M2098.09 381.526H2095.5V415.238H2098.09V381.526Z" fill="white"/>
<path d="M2102.75 381.526H2100.16V415.238H2102.75V381.526Z" fill="white"/>
<path d="M2107.4 381.526H2104.82V415.238H2107.4V381.526Z" fill="white"/>
<path d="M2112.14 381.526H2109.56V415.238H2112.14V381.526Z" fill="white"/>
<path d="M2116.8 381.526H2114.21V415.238H2116.8V381.526Z" fill="white"/>
<path d="M2121.46 381.526H2118.87V415.238H2121.46V381.526Z" fill="white"/>
<path d="M2126.2 381.526H2123.61V415.238H2126.2V381.526Z" fill="white"/>
<path d="M2130.85 381.526H2128.27V415.238H2130.85V381.526Z" fill="white"/>
<path d="M2135.51 381.526H2132.92V415.238H2135.51V381.526Z" fill="white"/>
<path d="M2140.25 381.526H2137.67V415.238H2140.25V381.526Z" fill="white"/>
<path d="M2144.91 381.526H2142.32V415.238H2144.91V381.526Z" fill="white"/>
<path d="M2149.56 381.526H2146.98V415.238H2149.56V381.526Z" fill="white"/>
<path d="M2154.22 381.526H2151.63V415.238H2154.22V381.526Z" fill="white"/>
<path d="M2264.93 347.814H2187.41V415.152H2264.93V347.814Z" fill="#BDEEFF"/>
<path d="M2264.93 347.814H2187.41V349.969H2264.93V347.814Z" fill="#CCD3D9"/>
<path d="M2263.98 412.996H2186.47V415.152H2263.98V412.996Z" fill="#CCD3D9"/>
<path d="M2227.08 347.814H2225.27V415.152H2227.08V347.814Z" fill="#919FAD"/>
<path d="M2264.93 377.042H2187.41V381.526H2264.93V377.042Z" fill="white"/>
<path d="M2190 381.526H2187.41V415.238H2190V381.526Z" fill="white"/>
<path d="M2194.66 381.526H2192.07V415.238H2194.66V381.526Z" fill="white"/>
<path d="M2199.4 381.526H2196.81V415.238H2199.4V381.526Z" fill="white"/>
<path d="M2204.06 381.526H2201.47V415.238H2204.06V381.526Z" fill="white"/>
<path d="M2208.71 381.526H2206.12V415.238H2208.71V381.526Z" fill="white"/>
<path d="M2213.45 381.526H2210.87V415.238H2213.45V381.526Z" fill="white"/>
<path d="M2218.11 381.526H2215.52V415.238H2218.11V381.526Z" fill="white"/>
<path d="M2222.77 381.526H2220.18V415.238H2222.77V381.526Z" fill="white"/>
<path d="M2227.51 381.526H2224.92V415.238H2227.51V381.526Z" fill="white"/>
<path d="M2232.16 381.526H2229.58V415.238H2232.16V381.526Z" fill="white"/>
<path d="M2236.82 381.526H2234.23V415.238H2236.82V381.526Z" fill="white"/>
<path d="M2241.56 381.526H2238.97V415.238H2241.56V381.526Z" fill="white"/>
<path d="M2246.22 381.526H2243.63V415.238H2246.22V381.526Z" fill="white"/>
<path d="M2250.87 381.526H2248.29V415.238H2250.87V381.526Z" fill="white"/>
<path d="M2255.62 381.526H2253.03V415.238H2255.62V381.526Z" fill="white"/>
<path d="M2260.27 381.526H2257.68V415.238H2260.27V381.526Z" fill="white"/>
<path d="M2264.93 381.526H2262.34V415.238H2264.93V381.526Z" fill="white"/>
<path d="M2154.22 430.24H2076.71V497.579H2154.22V430.24Z" fill="#BDEEFF"/>
<path d="M2154.22 430.24H2076.71V432.396H2154.22V430.24Z" fill="#CCD3D9"/>
<path d="M2153.27 495.423H2075.76V497.579H2153.27V495.423Z" fill="#CCD3D9"/>
<path d="M2116.37 430.24H2114.56V497.579H2116.37V430.24Z" fill="#919FAD"/>
<path d="M2154.22 459.469H2076.71V463.953H2154.22V459.469Z" fill="white"/>
<path d="M2079.29 463.953H2076.71V497.665H2079.29V463.953Z" fill="white"/>
<path d="M2084.04 463.953H2081.45V497.665H2084.04V463.953Z" fill="white"/>
<path d="M2088.69 463.953H2086.11V497.665H2088.69V463.953Z" fill="white"/>
<path d="M2093.35 463.953H2090.76V497.665H2093.35V463.953Z" fill="white"/>
<path d="M2098.09 463.953H2095.5V497.665H2098.09V463.953Z" fill="white"/>
<path d="M2102.75 463.953H2100.16V497.665H2102.75V463.953Z" fill="white"/>
<path d="M2107.4 463.953H2104.82V497.665H2107.4V463.953Z" fill="white"/>
<path d="M2112.14 463.953H2109.56V497.665H2112.14V463.953Z" fill="white"/>
<path d="M2116.8 463.953H2114.21V497.665H2116.8V463.953Z" fill="white"/>
<path d="M2121.46 463.953H2118.87V497.665H2121.46V463.953Z" fill="white"/>
<path d="M2126.2 463.953H2123.61V497.665H2126.2V463.953Z" fill="white"/>
<path d="M2130.85 463.953H2128.27V497.665H2130.85V463.953Z" fill="white"/>
<path d="M2135.51 463.953H2132.92V497.665H2135.51V463.953Z" fill="white"/>
<path d="M2140.25 463.953H2137.67V497.665H2140.25V463.953Z" fill="white"/>
<path d="M2144.91 463.953H2142.32V497.665H2144.91V463.953Z" fill="white"/>
<path d="M2149.56 463.953H2146.98V497.665H2149.56V463.953Z" fill="white"/>
<path d="M2154.22 463.953H2151.63V497.665H2154.22V463.953Z" fill="white"/>
<path d="M2264.93 430.24H2187.41V497.579H2264.93V430.24Z" fill="#BDEEFF"/>
<path d="M2264.93 430.24H2187.41V432.396H2264.93V430.24Z" fill="#CCD3D9"/>
<path d="M2263.98 495.423H2186.47V497.579H2263.98V495.423Z" fill="#CCD3D9"/>
<path d="M2227.08 430.24H2225.27V497.579H2227.08V430.24Z" fill="#919FAD"/>
<path d="M2264.93 459.469H2187.41V463.953H2264.93V459.469Z" fill="white"/>
<path d="M2190 463.953H2187.41V497.665H2190V463.953Z" fill="white"/>
<path d="M2194.66 463.953H2192.07V497.665H2194.66V463.953Z" fill="white"/>
<path d="M2199.4 463.953H2196.81V497.665H2199.4V463.953Z" fill="white"/>
<path d="M2204.06 463.953H2201.47V497.665H2204.06V463.953Z" fill="white"/>
<path d="M2208.71 463.953H2206.12V497.665H2208.71V463.953Z" fill="white"/>
<path d="M2213.45 463.953H2210.87V497.665H2213.45V463.953Z" fill="white"/>
<path d="M2218.11 463.953H2215.52V497.665H2218.11V463.953Z" fill="white"/>
<path d="M2222.77 463.953H2220.18V497.665H2222.77V463.953Z" fill="white"/>
<path d="M2227.51 463.953H2224.92V497.665H2227.51V463.953Z" fill="white"/>
<path d="M2232.16 463.953H2229.58V497.665H2232.16V463.953Z" fill="white"/>
<path d="M2236.82 463.953H2234.23V497.665H2236.82V463.953Z" fill="white"/>
<path d="M2241.56 463.953H2238.97V497.665H2241.56V463.953Z" fill="white"/>
<path d="M2246.22 463.953H2243.63V497.665H2246.22V463.953Z" fill="white"/>
<path d="M2250.87 463.953H2248.29V497.665H2250.87V463.953Z" fill="white"/>
<path d="M2255.62 463.953H2253.03V497.665H2255.62V463.953Z" fill="white"/>
<path d="M2260.27 463.953H2257.68V497.665H2260.27V463.953Z" fill="white"/>
<path d="M2264.93 463.953H2262.34V497.665H2264.93V463.953Z" fill="white"/>
<path d="M2025.06 436.793H1973.59V497.406H2025.06V436.793Z" fill="#BDEEFF"/>
<path d="M1999.89 436.793H1998.68V497.406H1999.89V436.793Z" fill="#919FAD"/>
<path d="M2035.49 422.912H1965.22V436.707H2035.49V422.912Z" fill="#B3A07F"/>
<path d="M715.458 57.854H544.052V497.406H715.458V57.854Z" fill="#FFF8E3"/>
<path d="M686.402 0.862213H553.536L544.052 57.854H715.458L686.402 0.862213Z" fill="#00D3E9"/>
<path d="M612.856 69.3213H563.02V119.157H612.856V69.3213Z" fill="#BDEEFF"/>
<path d="M612.856 69.3213H563.02V70.9595H612.856V69.3213Z" fill="#CCD3D9"/>
<path d="M612.252 117.519H562.417V119.157H612.252V117.519Z" fill="#CCD3D9"/>
<path d="M697.697 69.3213H647.861V119.157H697.697V69.3213Z" fill="#BDEEFF"/>
<path d="M697.697 69.3213H647.861V70.9595H697.697V69.3213Z" fill="#CCD3D9"/>
<path d="M697.007 117.519H647.171V119.157H697.007V117.519Z" fill="#CCD3D9"/>
<path d="M612.856 134.245H563.02V184.081H612.856V134.245Z" fill="#BDEEFF"/>
<path d="M612.856 134.245H563.02V135.884H612.856V134.245Z" fill="#CCD3D9"/>
<path d="M612.252 182.443H562.417V184.081H612.252V182.443Z" fill="#CCD3D9"/>
<path d="M697.697 134.245H647.861V184.081H697.697V134.245Z" fill="#BDEEFF"/>
<path d="M697.697 134.245H647.861V135.884H697.697V134.245Z" fill="#CCD3D9"/>
<path d="M697.007 182.443H647.171V184.081H697.007V182.443Z" fill="#CCD3D9"/>
<path d="M612.856 199.083H563.02V248.919H612.856V199.083Z" fill="#BDEEFF"/>
<path d="M612.856 199.083H563.02V200.721H612.856V199.083Z" fill="#CCD3D9"/>
<path d="M612.252 247.28H562.417V248.919H612.252V247.28Z" fill="#CCD3D9"/>
<path d="M697.697 199.083H647.861V248.919H697.697V199.083Z" fill="#BDEEFF"/>
<path d="M697.697 199.083H647.861V200.721H697.697V199.083Z" fill="#CCD3D9"/>
<path d="M697.007 247.28H647.171V248.919H697.007V247.28Z" fill="#CCD3D9"/>
<path d="M612.856 263.921H563.02V313.757H612.856V263.921Z" fill="#BDEEFF"/>
<path d="M612.856 263.921H563.02V265.559H612.856V263.921Z" fill="#CCD3D9"/>
<path d="M612.252 312.118H562.417V313.757H612.252V312.118Z" fill="#CCD3D9"/>
<path d="M697.697 263.921H647.861V313.757H697.697V263.921Z" fill="#BDEEFF"/>
<path d="M697.697 263.921H647.861V265.559H697.697V263.921Z" fill="#CCD3D9"/>
<path d="M697.007 312.118H647.171V313.757H697.007V312.118Z" fill="#CCD3D9"/>
<path d="M612.856 328.845H563.02V378.681H612.856V328.845Z" fill="#BDEEFF"/>
<path d="M612.856 328.845H563.02V330.483H612.856V328.845Z" fill="#CCD3D9"/>
<path d="M612.252 377.042H562.417V378.681H612.252V377.042Z" fill="#CCD3D9"/>
<path d="M697.697 328.845H647.861V378.681H697.697V328.845Z" fill="#BDEEFF"/>
<path d="M697.697 328.845H647.861V330.483H697.697V328.845Z" fill="#CCD3D9"/>
<path d="M697.007 377.042H647.171V378.681H697.007V377.042Z" fill="#CCD3D9"/>
<path d="M2496.77 57.854H2325.37V497.406H2496.77V57.854Z" fill="#FFF8E3"/>
<path d="M2467.72 0.862213H2334.85L2325.37 57.854H2496.77L2467.72 0.862213Z" fill="#00D3E9"/>
<path d="M2394.17 69.3213H2344.34V119.157H2394.17V69.3213Z" fill="#BDEEFF"/>
<path d="M2394.17 69.3213H2344.34V70.9595H2394.17V69.3213Z" fill="#CCD3D9"/>
<path d="M2393.57 117.519H2343.73V119.157H2393.57V117.519Z" fill="#CCD3D9"/>
<path d="M2479.01 69.3213H2429.18V119.157H2479.01V69.3213Z" fill="#BDEEFF"/>
<path d="M2479.01 69.3213H2429.18V70.9595H2479.01V69.3213Z" fill="#CCD3D9"/>
<path d="M2478.32 117.519H2428.49V119.157H2478.32V117.519Z" fill="#CCD3D9"/>
<path d="M2394.17 134.245H2344.34V184.081H2394.17V134.245Z" fill="#BDEEFF"/>
<path d="M2394.17 134.245H2344.34V135.884H2394.17V134.245Z" fill="#CCD3D9"/>
<path d="M2393.57 182.443H2343.73V184.081H2393.57V182.443Z" fill="#CCD3D9"/>
<path d="M2479.01 134.245H2429.18V184.081H2479.01V134.245Z" fill="#BDEEFF"/>
<path d="M2479.01 134.245H2429.18V135.884H2479.01V134.245Z" fill="#CCD3D9"/>
<path d="M2478.32 182.443H2428.49V184.081H2478.32V182.443Z" fill="#CCD3D9"/>
<path d="M2394.17 199.083H2344.34V248.919H2394.17V199.083Z" fill="#BDEEFF"/>
<path d="M2394.17 199.083H2344.34V200.721H2394.17V199.083Z" fill="#CCD3D9"/>
<path d="M2393.57 247.28H2343.73V248.919H2393.57V247.28Z" fill="#CCD3D9"/>
<path d="M2479.01 199.083H2429.18V248.919H2479.01V199.083Z" fill="#BDEEFF"/>
<path d="M2479.01 199.083H2429.18V200.721H2479.01V199.083Z" fill="#CCD3D9"/>
<path d="M2478.32 247.28H2428.49V248.919H2478.32V247.28Z" fill="#CCD3D9"/>
<path d="M2394.17 263.921H2344.34V313.757H2394.17V263.921Z" fill="#BDEEFF"/>
<path d="M2394.17 263.921H2344.34V265.559H2394.17V263.921Z" fill="#CCD3D9"/>
<path d="M2393.57 312.118H2343.73V313.757H2393.57V312.118Z" fill="#CCD3D9"/>
<path d="M2479.01 263.921H2429.18V313.757H2479.01V263.921Z" fill="#BDEEFF"/>
<path d="M2479.01 263.921H2429.18V265.559H2479.01V263.921Z" fill="#CCD3D9"/>
<path d="M2478.32 312.118H2428.49V313.757H2478.32V312.118Z" fill="#CCD3D9"/>
<path d="M2394.17 328.845H2344.34V378.681H2394.17V328.845Z" fill="#BDEEFF"/>
<path d="M2394.17 328.845H2344.34V330.483H2394.17V328.845Z" fill="#CCD3D9"/>
<path d="M2393.57 377.042H2343.73V378.681H2393.57V377.042Z" fill="#CCD3D9"/>
<path d="M2479.01 328.845H2429.18V378.681H2479.01V328.845Z" fill="#BDEEFF"/>
<path d="M2479.01 328.845H2429.18V330.483H2479.01V328.845Z" fill="#CCD3D9"/>
<path d="M2478.32 377.042H2428.49V378.681H2478.32V377.042Z" fill="#CCD3D9"/>
<path d="M1360.39 56.9918H1188.98V496.544H1360.39V56.9918Z" fill="#FFF8E3"/>
<path d="M1331.33 0H1198.47L1188.98 56.9918H1360.39L1331.33 0Z" fill="#00D3E9"/>
<path d="M1257.79 68.4591H1207.95V118.295H1257.79V68.4591Z" fill="#BDEEFF"/>
<path d="M1257.79 68.4591H1207.95V70.0973H1257.79V68.4591Z" fill="#CCD3D9"/>
<path d="M1257.18 116.656H1207.35V118.295H1257.18V116.656Z" fill="#CCD3D9"/>
<path d="M1342.63 68.4591H1292.79V118.295H1342.63V68.4591Z" fill="#BDEEFF"/>
<path d="M1342.63 68.4591H1292.79V70.0973H1342.63V68.4591Z" fill="#CCD3D9"/>
<path d="M1341.94 116.656H1292.1V118.295H1341.94V116.656Z" fill="#CCD3D9"/>
<path d="M1257.79 133.383H1207.95V183.219H1257.79V133.383Z" fill="#BDEEFF"/>
<path d="M1257.79 133.383H1207.95V135.021H1257.79V133.383Z" fill="#CCD3D9"/>
<path d="M1257.18 181.58H1207.35V183.219H1257.18V181.58Z" fill="#CCD3D9"/>
<path d="M1342.63 133.383H1292.79V183.219H1342.63V133.383Z" fill="#BDEEFF"/>
<path d="M1342.63 133.383H1292.79V135.021H1342.63V133.383Z" fill="#CCD3D9"/>
<path d="M1341.94 181.58H1292.1V183.219H1341.94V181.58Z" fill="#CCD3D9"/>
<path d="M1257.79 198.221H1207.95V248.056H1257.79V198.221Z" fill="#BDEEFF"/>
<path d="M1257.79 198.221H1207.95V199.859H1257.79V198.221Z" fill="#CCD3D9"/>
<path d="M1257.18 246.418H1207.35V248.056H1257.18V246.418Z" fill="#CCD3D9"/>
<path d="M1342.63 198.221H1292.79V248.056H1342.63V198.221Z" fill="#BDEEFF"/>
<path d="M1342.63 198.221H1292.79V199.859H1342.63V198.221Z" fill="#CCD3D9"/>
<path d="M1341.94 246.418H1292.1V248.056H1341.94V246.418Z" fill="#CCD3D9"/>
<path d="M1257.79 263.059H1207.95V312.894H1257.79V263.059Z" fill="#BDEEFF"/>
<path d="M1257.79 263.059H1207.95V264.697H1257.79V263.059Z" fill="#CCD3D9"/>
<path d="M1257.18 311.256H1207.35V312.894H1257.18V311.256Z" fill="#CCD3D9"/>
<path d="M1342.63 263.059H1292.79V312.894H1342.63V263.059Z" fill="#BDEEFF"/>
<path d="M1342.63 263.059H1292.79V264.697H1342.63V263.059Z" fill="#CCD3D9"/>
<path d="M1341.94 311.256H1292.1V312.894H1341.94V311.256Z" fill="#CCD3D9"/>
<path d="M1257.79 327.983H1207.95V377.818H1257.79V327.983Z" fill="#BDEEFF"/>
<path d="M1257.79 327.983H1207.95V329.621H1257.79V327.983Z" fill="#CCD3D9"/>
<path d="M1257.18 376.18H1207.35V377.818H1257.18V376.18Z" fill="#CCD3D9"/>
<path d="M1342.63 327.983H1292.79V377.818H1342.63V327.983Z" fill="#BDEEFF"/>
<path d="M1342.63 327.983H1292.79V329.621H1342.63V327.983Z" fill="#CCD3D9"/>
<path d="M1341.94 376.18H1292.1V377.818H1341.94V376.18Z" fill="#CCD3D9"/>
<path d="M492.811 497.493H320.987V376.617L406.874 325.62L492.811 374.574V497.493Z" fill="#FFDCAA"/>
<path d="M508.577 388.491L406.874 329.124L305.221 388.491V379.245L406.874 319.878L508.577 379.245V388.491Z" fill="#FF4333"/>
<path d="M478.358 425.279H408.918V485.619H478.358V425.279Z" fill="#BDEEFF"/>
<path d="M478.358 425.279H408.918V427.225H478.358V425.279Z" fill="#CCD3D9"/>
<path d="M477.482 483.673H408.042V485.619H477.482V483.673Z" fill="#CCD3D9"/>
<path d="M444.441 425.279H442.787V485.619H444.441V425.279Z" fill="#919FAD"/>
<path d="M478.358 451.41H408.918V455.449H478.358V451.41Z" fill="white"/>
<path d="M411.254 455.449H408.918V485.619H411.254V455.449Z" fill="white"/>
<path d="M415.439 455.449H413.103V485.619H415.439V455.449Z" fill="white"/>
<path d="M419.624 455.449H417.288V485.619H419.624V455.449Z" fill="white"/>
<path d="M423.809 455.449H421.473V485.619H423.809V455.449Z" fill="white"/>
<path d="M428.042 455.449H425.706V485.619H428.042V455.449Z" fill="white"/>
<path d="M432.227 455.449H429.891V485.619H432.227V455.449Z" fill="white"/>
<path d="M436.412 455.449H434.076V485.619H436.412V455.449Z" fill="white"/>
<path d="M440.597 455.449H438.261V485.619H440.597V455.449Z" fill="white"/>
<path d="M444.83 455.449H442.495V485.619H444.83V455.449Z" fill="white"/>
<path d="M449.015 455.449H446.68V485.619H449.015V455.449Z" fill="white"/>
<path d="M453.2 455.449H450.864V485.619H453.2V455.449Z" fill="white"/>
<path d="M457.385 455.449H455.049V485.619H457.385V455.449Z" fill="white"/>
<path d="M461.619 455.449H459.283V485.619H461.619V455.449Z" fill="white"/>
<path d="M465.803 455.449H463.468V485.619H465.803V455.449Z" fill="white"/>
<path d="M469.988 455.449H467.653V485.619H469.988V455.449Z" fill="white"/>
<path d="M474.173 455.449H471.838V485.619H474.173V455.449Z" fill="white"/>
<path d="M478.358 455.449H476.022V485.619H478.358V455.449Z" fill="white"/>
<path d="M438.407 362.068H376.12V396.666H438.407V362.068Z" fill="#BDEEFF"/>
<path d="M438.407 362.068H376.12V363.187H438.407V362.068Z" fill="#CCD3D9"/>
<path d="M437.629 395.547H375.342V396.666H437.629V395.547Z" fill="#CCD3D9"/>
<path d="M408.042 362.068H406.534V396.666H408.042V362.068Z" fill="#919FAD"/>
<path d="M3975.59 497.493H3803.77V376.617L3889.65 325.62L3975.59 374.574V497.493Z" fill="#FFDCAA"/>
<path d="M3991.36 388.491L3889.65 329.124L3788 388.491V379.245L3889.65 319.878L3991.36 379.245V388.491Z" fill="#FF4333"/>
<path d="M3961.14 425.279H3891.7V485.619H3961.14V425.279Z" fill="#BDEEFF"/>
<path d="M3961.14 425.279H3891.7V427.225H3961.14V425.279Z" fill="#CCD3D9"/>
<path d="M3960.26 483.673H3890.82V485.619H3960.26V483.673Z" fill="#CCD3D9"/>
<path d="M3927.22 425.279H3925.57V485.619H3927.22V425.279Z" fill="#919FAD"/>
<path d="M3961.14 451.41H3891.7V455.449H3961.14V451.41Z" fill="white"/>
<path d="M3894.03 455.449H3891.7V485.619H3894.03V455.449Z" fill="white"/>
<path d="M3898.22 455.449H3895.88V485.619H3898.22V455.449Z" fill="white"/>
<path d="M3902.4 455.449H3900.07V485.619H3902.4V455.449Z" fill="white"/>
<path d="M3906.59 455.449H3904.25V485.619H3906.59V455.449Z" fill="white"/>
<path d="M3910.82 455.449H3908.49V485.619H3910.82V455.449Z" fill="white"/>
<path d="M3915.01 455.449H3912.67V485.619H3915.01V455.449Z" fill="white"/>
<path d="M3919.19 455.449H3916.86V485.619H3919.19V455.449Z" fill="white"/>
<path d="M3923.38 455.449H3921.04V485.619H3923.38V455.449Z" fill="white"/>
<path d="M3927.61 455.449H3925.27V485.619H3927.61V455.449Z" fill="white"/>
<path d="M3931.79 455.449H3929.46V485.619H3931.79V455.449Z" fill="white"/>
<path d="M3935.98 455.449H3933.64V485.619H3935.98V455.449Z" fill="white"/>
<path d="M3940.16 455.449H3937.83V485.619H3940.16V455.449Z" fill="white"/>
<path d="M3944.4 455.449H3942.06V485.619H3944.4V455.449Z" fill="white"/>
<path d="M3948.58 455.449H3946.25V485.619H3948.58V455.449Z" fill="white"/>
<path d="M3952.77 455.449H3950.43V485.619H3952.77V455.449Z" fill="white"/>
<path d="M3956.95 455.449H3954.62V485.619H3956.95V455.449Z" fill="white"/>
<path d="M3961.14 455.449H3958.8V485.619H3961.14V455.449Z" fill="white"/>
<path d="M3921.19 362.068H3858.9V396.666H3921.19V362.068Z" fill="#BDEEFF"/>
<path d="M3921.19 362.068H3858.9V363.187H3921.19V362.068Z" fill="#CCD3D9"/>
<path d="M3920.41 395.547H3858.12V396.666H3920.41V395.547Z" fill="#CCD3D9"/>
<path d="M3890.82 362.068H3889.31V396.666H3890.82V362.068Z" fill="#919FAD"/>
<path d="M3439.83 497.493H3268V376.617L3353.89 325.62L3439.83 374.574V497.493Z" fill="#FFDCAA"/>
<path d="M3455.59 388.491L3353.89 329.124L3252.24 388.491V379.245L3353.89 319.878L3455.59 379.245V388.491Z" fill="#FF4333"/>
<path d="M3425.38 425.279H3355.94V485.619H3425.38V425.279Z" fill="#BDEEFF"/>
<path d="M3425.38 425.279H3355.94V427.225H3425.38V425.279Z" fill="#CCD3D9"/>
<path d="M3424.5 483.673H3355.06V485.619H3424.5V483.673Z" fill="#CCD3D9"/>
<path d="M3391.46 425.279H3389.8V485.619H3391.46V425.279Z" fill="#919FAD"/>
<path d="M3425.38 451.41H3355.94V455.449H3425.38V451.41Z" fill="white"/>
<path d="M3358.27 455.449H3355.94V485.619H3358.27V455.449Z" fill="white"/>
<path d="M3362.46 455.449H3360.12V485.619H3362.46V455.449Z" fill="white"/>
<path d="M3366.64 455.449H3364.31V485.619H3366.64V455.449Z" fill="white"/>
<path d="M3370.83 455.449H3368.49V485.619H3370.83V455.449Z" fill="white"/>
<path d="M3375.06 455.449H3372.72V485.619H3375.06V455.449Z" fill="white"/>
<path d="M3379.24 455.449H3376.91V485.619H3379.24V455.449Z" fill="white"/>
<path d="M3383.43 455.449H3381.09V485.619H3383.43V455.449Z" fill="white"/>
<path d="M3387.61 455.449H3385.28V485.619H3387.61V455.449Z" fill="white"/>
<path d="M3391.85 455.449H3389.51V485.619H3391.85V455.449Z" fill="white"/>
<path d="M3396.03 455.449H3393.7V485.619H3396.03V455.449Z" fill="white"/>
<path d="M3400.22 455.449H3397.88V485.619H3400.22V455.449Z" fill="white"/>
<path d="M3404.4 455.449H3402.07V485.619H3404.4V455.449Z" fill="white"/>
<path d="M3408.64 455.449H3406.3V485.619H3408.64V455.449Z" fill="white"/>
<path d="M3412.82 455.449H3410.49V485.619H3412.82V455.449Z" fill="white"/>
<path d="M3417.01 455.449H3414.67V485.619H3417.01V455.449Z" fill="white"/>
<path d="M3421.19 455.449H3418.86V485.619H3421.19V455.449Z" fill="white"/>
<path d="M3425.38 455.449H3423.04V485.619H3425.38V455.449Z" fill="white"/>
<path d="M3385.42 362.068H3323.14V396.666H3385.42V362.068Z" fill="#BDEEFF"/>
<path d="M3385.42 362.068H3323.14V363.187H3385.42V362.068Z" fill="#CCD3D9"/>
<path d="M3384.65 395.547H3322.36V396.666H3384.65V395.547Z" fill="#CCD3D9"/>
<path d="M3355.06 362.068H3353.55V396.666H3355.06V362.068Z" fill="#919FAD"/>
<path d="M2719.89 497.493H2548.06V376.617L2633.95 325.62L2719.89 374.574V497.493Z" fill="#FFDCAA"/>
<path d="M2735.65 388.491L2633.95 329.124L2532.3 388.491V379.245L2633.95 319.878L2735.65 379.245V388.491Z" fill="#FF4333"/>
<path d="M2705.43 425.279H2635.99V485.619H2705.43V425.279Z" fill="#BDEEFF"/>
<path d="M2705.43 425.279H2635.99V427.225H2705.43V425.279Z" fill="#CCD3D9"/>
<path d="M2704.56 483.673H2635.12V485.619H2704.56V483.673Z" fill="#CCD3D9"/>
<path d="M2671.52 425.279H2669.86V485.619H2671.52V425.279Z" fill="#919FAD"/>
<path d="M2705.43 451.41H2635.99V455.449H2705.43V451.41Z" fill="white"/>
<path d="M2638.33 455.449H2635.99V485.619H2638.33V455.449Z" fill="white"/>
<path d="M2642.52 455.449H2640.18V485.619H2642.52V455.449Z" fill="white"/>
<path d="M2646.7 455.449H2644.36V485.619H2646.7V455.449Z" fill="white"/>
<path d="M2650.88 455.449H2648.55V485.619H2650.88V455.449Z" fill="white"/>
<path d="M2655.12 455.449H2652.78V485.619H2655.12V455.449Z" fill="white"/>
<path d="M2659.3 455.449H2656.97V485.619H2659.3V455.449Z" fill="white"/>
<path d="M2663.49 455.449H2661.15V485.619H2663.49V455.449Z" fill="white"/>
<path d="M2667.67 455.449H2665.34V485.619H2667.67V455.449Z" fill="white"/>
<path d="M2671.91 455.449H2669.57V485.619H2671.91V455.449Z" fill="white"/>
<path d="M2676.09 455.449H2673.76V485.619H2676.09V455.449Z" fill="white"/>
<path d="M2680.28 455.449H2677.94V485.619H2680.28V455.449Z" fill="white"/>
<path d="M2684.46 455.449H2682.13V485.619H2684.46V455.449Z" fill="white"/>
<path d="M2688.69 455.449H2686.36V485.619H2688.69V455.449Z" fill="white"/>
<path d="M2692.88 455.449H2690.54V485.619H2692.88V455.449Z" fill="white"/>
<path d="M2697.06 455.449H2694.73V485.619H2697.06V455.449Z" fill="white"/>
<path d="M2701.25 455.449H2698.91V485.619H2701.25V455.449Z" fill="white"/>
<path d="M2705.43 455.449H2703.1V485.619H2705.43V455.449Z" fill="white"/>
<path d="M2665.48 362.068H2603.2V396.666H2665.48V362.068Z" fill="#BDEEFF"/>
<path d="M2665.48 362.068H2603.2V363.187H2665.48V362.068Z" fill="#CCD3D9"/>
<path d="M2664.7 395.547H2602.42V396.666H2664.7V395.547Z" fill="#CCD3D9"/>
<path d="M2635.12 362.068H2633.61V396.666H2635.12V362.068Z" fill="#919FAD"/>
<path d="M1583.5 497.493H1411.68V376.617L1497.56 325.62L1583.5 374.574V497.493Z" fill="#FFDCAA"/>
<path d="M1599.27 388.491L1497.56 329.124L1395.91 388.491V379.245L1497.56 319.878L1599.27 379.245V388.491Z" fill="#FF4333"/>
<path d="M1569.05 425.279H1499.61V485.619H1569.05V425.279Z" fill="#BDEEFF"/>
<path d="M1569.05 425.279H1499.61V427.225H1569.05V425.279Z" fill="#CCD3D9"/>
<path d="M1568.17 483.673H1498.73V485.619H1568.17V483.673Z" fill="#CCD3D9"/>
<path d="M1535.13 425.279H1533.48V485.619H1535.13V425.279Z" fill="#919FAD"/>
<path d="M1569.05 451.41H1499.61V455.449H1569.05V451.41Z" fill="white"/>
<path d="M1501.94 455.449H1499.61V485.619H1501.94V455.449Z" fill="white"/>
<path d="M1506.13 455.449H1503.79V485.619H1506.13V455.449Z" fill="white"/>
<path d="M1510.31 455.449H1507.98V485.619H1510.31V455.449Z" fill="white"/>
<path d="M1514.5 455.449H1512.16V485.619H1514.5V455.449Z" fill="white"/>
<path d="M1518.73 455.449H1516.4V485.619H1518.73V455.449Z" fill="white"/>
<path d="M1522.92 455.449H1520.58V485.619H1522.92V455.449Z" fill="white"/>
<path d="M1527.1 455.449H1524.77V485.619H1527.1V455.449Z" fill="white"/>
<path d="M1531.29 455.449H1528.95V485.619H1531.29V455.449Z" fill="white"/>
<path d="M1535.52 455.449H1533.18V485.619H1535.52V455.449Z" fill="white"/>
<path d="M1539.71 455.449H1537.37V485.619H1539.71V455.449Z" fill="white"/>
<path d="M1543.89 455.449H1541.55V485.619H1543.89V455.449Z" fill="white"/>
<path d="M1548.07 455.449H1545.74V485.619H1548.07V455.449Z" fill="white"/>
<path d="M1552.31 455.449H1549.97V485.619H1552.31V455.449Z" fill="white"/>
<path d="M1556.49 455.449H1554.16V485.619H1556.49V455.449Z" fill="white"/>
<path d="M1560.68 455.449H1558.34V485.619H1560.68V455.449Z" fill="white"/>
<path d="M1564.86 455.449H1562.53V485.619H1564.86V455.449Z" fill="white"/>
<path d="M1569.05 455.449H1566.71V485.619H1569.05V455.449Z" fill="white"/>
<path d="M1529.1 362.068H1466.81V396.666H1529.1V362.068Z" fill="#BDEEFF"/>
<path d="M1529.1 362.068H1466.81V363.187H1529.1V362.068Z" fill="#CCD3D9"/>
<path d="M1528.32 395.547H1466.03V396.666H1528.32V395.547Z" fill="#CCD3D9"/>
<path d="M1498.73 362.068H1497.22V396.666H1498.73V362.068Z" fill="#919FAD"/>
<path d="M258.791 170.717H11.2432V497.492H258.791V170.717Z" fill="#FFF7E6"/>
<path d="M125.187 398.408H41.0278V497.493H125.187V398.408Z" fill="#BDEEFF"/>
<path d="M84.1596 398.408H82.1213V497.492H84.1596V398.408Z" fill="#919FAD"/>
<path d="M87.8416 266.317H41.0936V313.065H87.8416V266.317Z" fill="#BDEEFF"/>
<path d="M87.8416 266.317H41.0936V267.829H87.8416V266.317Z" fill="#CCD3D9"/>
<path d="M87.3155 311.552H40.5675V313.065H87.3155V311.552Z" fill="#CCD3D9"/>
<path d="M163.191 266.317H116.443V313.065H163.191V266.317Z" fill="#BDEEFF"/>
<path d="M163.191 266.317H116.443V267.829H163.191V266.317Z" fill="#CCD3D9"/>
<path d="M162.599 311.552H115.851V313.065H162.599V311.552Z" fill="#CCD3D9"/>
<path d="M237.488 266.317H190.74V313.065H237.488V266.317Z" fill="#BDEEFF"/>
<path d="M237.488 266.317H190.74V267.829H237.488V266.317Z" fill="#CCD3D9"/>
<path d="M236.896 311.552H190.148V313.065H236.896V311.552Z" fill="#CCD3D9"/>
<path d="M125.713 192.151H41.5538V238.899H125.713V192.151Z" fill="#BDEEFF"/>
<path d="M125.713 192.151H41.5538V193.663H125.713V192.151Z" fill="#CCD3D9"/>
<path d="M124.727 237.387H40.5675V238.899H124.727V237.387Z" fill="#CCD3D9"/>
<path d="M84.6856 192.151H82.6473V238.899H84.6856V192.151Z" fill="#919FAD"/>
<path d="M238.343 192.151H154.183V238.899H238.343V192.151Z" fill="#BDEEFF"/>
<path d="M238.343 192.151H154.183V193.663H238.343V192.151Z" fill="#CCD3D9"/>
<path d="M237.291 237.387H153.131V238.899H237.291V237.387Z" fill="#CCD3D9"/>
<path d="M197.249 192.151H195.211V238.899H197.249V192.151Z" fill="#919FAD"/>
<path d="M258.791 355.868H11.2432V378.223H258.791V355.868Z" fill="#FF8A4B"/>
<path d="M270.034 402.879H0L11.2432 378.157H258.791L270.034 402.879Z" fill="#FF8A4B"/>
<path d="M9.4022 402.879H0L11.2432 378.157H19.8564L9.4022 402.879Z" fill="#F1F8FF"/>
<path d="M25.7081 402.879H16.2401L26.1683 378.157H34.7815L25.7081 402.879Z" fill="#F1F8FF"/>
<path d="M41.9482 402.879H32.546L41.0935 378.157H49.7067L41.9482 402.879Z" fill="#F1F8FF"/>
<path d="M58.1885 402.879H48.7863L55.953 378.157H64.6319L58.1885 402.879Z" fill="#F1F8FF"/>
<path d="M74.4944 402.879H65.0922L70.8781 378.157H79.5571L74.4944 402.879Z" fill="#F1F8FF"/>
<path d="M90.7345 402.879H81.3323L85.8033 378.157H94.4165L90.7345 402.879Z" fill="#F1F8FF"/>
<path d="M107.04 402.879H97.5725L100.728 378.157H109.342L107.04 402.879Z" fill="#F1F8FF"/>
<path d="M123.281 402.879H113.878L115.588 378.157H124.267L123.281 402.879Z" fill="#F1F8FF"/>
<path d="M139.521 402.879H130.119L130.513 378.157H139.192L139.521 402.879Z" fill="#F1F8FF"/>
<path d="M155.827 402.879H146.359L145.438 378.157H154.051L155.827 402.879Z" fill="#F1F8FF"/>
<path d="M172.067 402.879H162.665L160.363 378.157H168.977L172.067 402.879Z" fill="#F1F8FF"/>
<path d="M188.307 402.879H178.905L175.289 378.157H183.902L188.307 402.879Z" fill="#F1F8FF"/>
<path d="M204.613 402.879H195.211L190.148 378.157H198.827L204.613 402.879Z" fill="#F1F8FF"/>
<path d="M220.853 402.879H211.451L205.073 378.157H213.686L220.853 402.879Z" fill="#F1F8FF"/>
<path d="M237.159 402.879H227.691L219.998 378.157H228.612L237.159 402.879Z" fill="#F1F8FF"/>
<path d="M253.399 402.879H243.997L234.924 378.157H243.537L253.399 402.879Z" fill="#F1F8FF"/>
<path d="M270.034 402.879H260.632L250.177 378.157H258.791L270.034 402.879Z" fill="#F1F8FF"/>
<path d="M0 402.879C0 406.626 3.55048 409.585 7.95571 409.585C12.3609 409.585 15.9114 406.561 15.9114 402.879H0Z" fill="#FF8A4B"/>
<path d="M15.9114 402.879C15.9114 406.626 19.4619 409.585 23.8671 409.585C28.2723 409.585 31.8228 406.561 31.8228 402.879H15.9114Z" fill="#FF8A4B"/>
<path d="M31.7571 402.879C31.7571 406.626 35.3076 409.585 39.7128 409.585C44.118 409.585 47.6685 406.561 47.6685 402.879H31.7571Z" fill="#FF8A4B"/>
<path d="M47.6686 402.879C47.6686 406.626 51.2191 409.585 55.6243 409.585C60.0295 409.585 63.58 406.561 63.58 402.879H47.6686Z" fill="#FF8A4B"/>
<path d="M63.5142 402.879C63.5142 406.626 67.0646 409.585 71.4699 409.585C75.8751 409.585 79.4256 406.561 79.4256 402.879H63.5142Z" fill="#FF8A4B"/>
<path d="M79.4257 402.879C79.4257 406.626 82.9761 409.585 87.3814 409.585C91.7866 409.585 95.3371 406.561 95.3371 402.879H79.4257Z" fill="#FF8A4B"/>
<path d="M95.337 402.879C95.337 406.626 98.8875 409.585 103.293 409.585C107.698 409.585 111.248 406.561 111.248 402.879H95.337Z" fill="#FF8A4B"/>
<path d="M111.183 402.879C111.183 406.626 114.733 409.585 119.138 409.585C123.544 409.585 127.094 406.561 127.094 402.879H111.183Z" fill="#FF8A4B"/>
<path d="M127.094 402.879C127.094 406.626 130.645 409.585 135.05 409.585C139.455 409.585 143.006 406.561 143.006 402.879H127.094Z" fill="#FF8A4B"/>
<path d="M142.94 402.879C142.94 406.626 146.49 409.585 150.896 409.585C155.301 409.585 158.851 406.561 158.851 402.879H142.94Z" fill="#FF8A4B"/>
<path d="M158.851 402.879C158.851 406.626 162.402 409.585 166.807 409.585C171.212 409.585 174.763 406.561 174.763 402.879H158.851Z" fill="#FF8A4B"/>
<path d="M174.763 402.879C174.763 406.626 178.313 409.585 182.718 409.585C187.124 409.585 190.674 406.561 190.674 402.879H174.763Z" fill="#FF8A4B"/>
<path d="M190.608 402.879C190.608 406.626 194.159 409.585 198.564 409.585C202.969 409.585 206.52 406.561 206.52 402.879H190.608Z" fill="#FF8A4B"/>
<path d="M206.52 402.879C206.52 406.626 210.07 409.585 214.475 409.585C218.881 409.585 222.431 406.561 222.431 402.879H206.52Z" fill="#FF8A4B"/>
<path d="M222.365 402.879C222.365 406.626 225.916 409.585 230.321 409.585C234.726 409.585 238.277 406.561 238.277 402.879H222.365Z" fill="#FF8A4B"/>
<path d="M238.277 402.879C238.277 406.626 241.827 409.585 246.232 409.585C250.638 409.585 254.188 406.561 254.188 402.879H238.277Z" fill="#FF8A4B"/>
<path d="M254.188 402.879C254.188 406.626 257.739 409.585 262.144 409.585C266.549 409.585 270.1 406.561 270.1 402.879H254.188Z" fill="#FF8A4B"/>
<path d="M196.131 334.105C196.131 334.105 175.946 325.557 133.801 325.557C91.655 325.557 71.4698 334.105 71.4698 334.105L85.8033 378.157H181.798L196.131 334.105Z" fill="#FFD064"/>
<path d="M3745.79 170.717H3498.24V497.492H3745.79V170.717Z" fill="#FFF7E6"/>
<path d="M3612.19 398.408H3528.03V497.493H3612.19V398.408Z" fill="#BDEEFF"/>
<path d="M3571.16 398.408H3569.12V497.493H3571.16V398.408Z" fill="#919FAD"/>
<path d="M3574.84 266.317H3528.09V313.065H3574.84V266.317Z" fill="#BDEEFF"/>
<path d="M3574.84 266.317H3528.09V267.829H3574.84V266.317Z" fill="#CCD3D9"/>
<path d="M3574.32 311.552H3527.57V313.065H3574.32V311.552Z" fill="#CCD3D9"/>
<path d="M3650.19 266.317H3603.44V313.065H3650.19V266.317Z" fill="#BDEEFF"/>
<path d="M3650.19 266.317H3603.44V267.829H3650.19V266.317Z" fill="#CCD3D9"/>
<path d="M3649.6 311.552H3602.85V313.065H3649.6V311.552Z" fill="#CCD3D9"/>
<path d="M3724.49 266.317H3677.74V313.065H3724.49V266.317Z" fill="#BDEEFF"/>
<path d="M3724.49 266.317H3677.74V267.829H3724.49V266.317Z" fill="#CCD3D9"/>
<path d="M3723.9 311.552H3677.15V313.065H3723.9V311.552Z" fill="#CCD3D9"/>
<path d="M3612.71 192.151H3528.55V238.899H3612.71V192.151Z" fill="#BDEEFF"/>
<path d="M3612.71 192.151H3528.55V193.663H3612.71V192.151Z" fill="#CCD3D9"/>
<path d="M3611.73 237.387H3527.57V238.899H3611.73V237.387Z" fill="#CCD3D9"/>
<path d="M3571.69 192.151H3569.65V238.899H3571.69V192.151Z" fill="#919FAD"/>
<path d="M3725.34 192.151H3641.18V238.899H3725.34V192.151Z" fill="#BDEEFF"/>
<path d="M3725.34 192.151H3641.18V193.663H3725.34V192.151Z" fill="#CCD3D9"/>
<path d="M3724.29 237.387H3640.13V238.899H3724.29V237.387Z" fill="#CCD3D9"/>
<path d="M3684.25 192.151H3682.21V238.899H3684.25V192.151Z" fill="#919FAD"/>
<path d="M3745.79 355.868H3498.24V378.223H3745.79V355.868Z" fill="#FF8A4B"/>
<path d="M3757.03 402.879H3487L3498.24 378.157H3745.79L3757.03 402.879Z" fill="#FF8A4B"/>
<path d="M3496.4 402.879H3487L3498.24 378.157H3506.86L3496.4 402.879Z" fill="#F1F8FF"/>
<path d="M3512.71 402.879H3503.24L3513.17 378.157H3521.78L3512.71 402.879Z" fill="#F1F8FF"/>
<path d="M3528.95 402.879H3519.55L3528.09 378.157H3536.71L3528.95 402.879Z" fill="#F1F8FF"/>
<path d="M3545.19 402.879H3535.79L3542.95 378.157H3551.63L3545.19 402.879Z" fill="#F1F8FF"/>
<path d="M3561.49 402.879H3552.09L3557.88 378.157H3566.56L3561.49 402.879Z" fill="#F1F8FF"/>
<path d="M3577.73 402.879H3568.33L3572.8 378.157H3581.42L3577.73 402.879Z" fill="#F1F8FF"/>
<path d="M3594.04 402.879H3584.57L3587.73 378.157H3596.34L3594.04 402.879Z" fill="#F1F8FF"/>
<path d="M3610.28 402.879H3600.88L3602.59 378.157H3611.27L3610.28 402.879Z" fill="#F1F8FF"/>
<path d="M3626.52 402.879H3617.12L3617.51 378.157H3626.19L3626.52 402.879Z" fill="#F1F8FF"/>
<path d="M3642.83 402.879H3633.36L3632.44 378.157H3641.05L3642.83 402.879Z" fill="#F1F8FF"/>
<path d="M3659.07 402.879H3649.66L3647.36 378.157H3655.98L3659.07 402.879Z" fill="#F1F8FF"/>
<path d="M3675.31 402.879H3665.91L3662.29 378.157H3670.9L3675.31 402.879Z" fill="#F1F8FF"/>
<path d="M3691.61 402.879H3682.21L3677.15 378.157H3685.83L3691.61 402.879Z" fill="#F1F8FF"/>
<path d="M3707.85 402.879H3698.45L3692.07 378.157H3700.69L3707.85 402.879Z" fill="#F1F8FF"/>
<path d="M3724.16 402.879H3714.69L3707 378.157H3715.61L3724.16 402.879Z" fill="#F1F8FF"/>
<path d="M3740.4 402.879H3731L3721.92 378.157H3730.54L3740.4 402.879Z" fill="#F1F8FF"/>
<path d="M3757.03 402.879H3747.63L3737.18 378.157H3745.79L3757.03 402.879Z" fill="#F1F8FF"/>
<path d="M3487 402.879C3487 406.626 3490.55 409.585 3494.96 409.585C3499.36 409.585 3502.91 406.561 3502.91 402.879H3487Z" fill="#FF8A4B"/>
<path d="M3502.91 402.879C3502.91 406.626 3506.46 409.585 3510.87 409.585C3515.27 409.585 3518.82 406.561 3518.82 402.879H3502.91Z" fill="#FF8A4B"/>
<path d="M3518.76 402.879C3518.76 406.626 3522.31 409.585 3526.71 409.585C3531.12 409.585 3534.67 406.561 3534.67 402.879H3518.76Z" fill="#FF8A4B"/>
<path d="M3534.67 402.879C3534.67 406.626 3538.22 409.585 3542.62 409.585C3547.03 409.585 3550.58 406.561 3550.58 402.879H3534.67Z" fill="#FF8A4B"/>
<path d="M3550.51 402.879C3550.51 406.626 3554.06 409.585 3558.47 409.585C3562.88 409.585 3566.43 406.561 3566.43 402.879H3550.51Z" fill="#FF8A4B"/>
<path d="M3566.43 402.879C3566.43 406.626 3569.98 409.585 3574.38 409.585C3578.79 409.585 3582.34 406.561 3582.34 402.879H3566.43Z" fill="#FF8A4B"/>
<path d="M3582.34 402.879C3582.34 406.626 3585.89 409.585 3590.29 409.585C3594.7 409.585 3598.25 406.561 3598.25 402.879H3582.34Z" fill="#FF8A4B"/>
<path d="M3598.18 402.879C3598.18 406.626 3601.73 409.585 3606.14 409.585C3610.54 409.585 3614.09 406.561 3614.09 402.879H3598.18Z" fill="#FF8A4B"/>
<path d="M3614.09 402.879C3614.09 406.626 3617.64 409.585 3622.05 409.585C3626.45 409.585 3630.01 406.561 3630.01 402.879H3614.09Z" fill="#FF8A4B"/>
<path d="M3629.94 402.879C3629.94 406.626 3633.49 409.585 3637.9 409.585C3642.3 409.585 3645.85 406.561 3645.85 402.879H3629.94Z" fill="#FF8A4B"/>
<path d="M3645.85 402.879C3645.85 406.626 3649.4 409.585 3653.81 409.585C3658.21 409.585 3661.76 406.561 3661.76 402.879H3645.85Z" fill="#FF8A4B"/>
<path d="M3661.76 402.879C3661.76 406.626 3665.31 409.585 3669.72 409.585C3674.12 409.585 3677.67 406.561 3677.67 402.879H3661.76Z" fill="#FF8A4B"/>
<path d="M3677.61 402.879C3677.61 406.626 3681.16 409.585 3685.56 409.585C3689.97 409.585 3693.52 406.561 3693.52 402.879H3677.61Z" fill="#FF8A4B"/>
<path d="M3693.52 402.879C3693.52 406.626 3697.07 409.585 3701.48 409.585C3705.88 409.585 3709.43 406.561 3709.43 402.879H3693.52Z" fill="#FF8A4B"/>
<path d="M3709.37 402.879C3709.37 406.626 3712.92 409.585 3717.32 409.585C3721.73 409.585 3725.28 406.561 3725.28 402.879H3709.37Z" fill="#FF8A4B"/>
<path d="M3725.28 402.879C3725.28 406.626 3728.83 409.585 3733.23 409.585C3737.64 409.585 3741.19 406.561 3741.19 402.879H3725.28Z" fill="#FF8A4B"/>
<path d="M3741.19 402.879C3741.19 406.626 3744.74 409.585 3749.14 409.585C3753.55 409.585 3757.1 406.561 3757.1 402.879H3741.19Z" fill="#FF8A4B"/>
<path d="M3683.13 334.105C3683.13 334.105 3662.95 325.557 3620.8 325.557C3578.66 325.557 3558.47 334.105 3558.47 334.105L3572.8 378.157H3668.8L3683.13 334.105Z" fill="#FFD064"/>
<path d="M1893.53 170.717H1645.98V497.492H1893.53V170.717Z" fill="#FFF7E6"/>
<path d="M1759.93 398.408H1675.77V497.493H1759.93V398.408Z" fill="#BDEEFF"/>
<path d="M1718.9 398.408H1716.86V497.492H1718.9V398.408Z" fill="#919FAD"/>
<path d="M1722.58 266.317H1675.83V313.065H1722.58V266.317Z" fill="#BDEEFF"/>
<path d="M1722.58 266.317H1675.83V267.829H1722.58V266.317Z" fill="#CCD3D9"/>
<path d="M1722.06 311.552H1675.31V313.065H1722.06V311.552Z" fill="#CCD3D9"/>
<path d="M1797.93 266.317H1751.18V313.065H1797.93V266.317Z" fill="#BDEEFF"/>
<path d="M1797.93 266.317H1751.18V267.829H1797.93V266.317Z" fill="#CCD3D9"/>
<path d="M1797.34 311.552H1750.59V313.065H1797.34V311.552Z" fill="#CCD3D9"/>
<path d="M1872.23 266.317H1825.48V313.065H1872.23V266.317Z" fill="#BDEEFF"/>
<path d="M1872.23 266.317H1825.48V267.829H1872.23V266.317Z" fill="#CCD3D9"/>
<path d="M1871.64 311.552H1824.89V313.065H1871.64V311.552Z" fill="#CCD3D9"/>
<path d="M1760.45 192.151H1676.3V238.899H1760.45V192.151Z" fill="#BDEEFF"/>
<path d="M1760.45 192.151H1676.3V193.663H1760.45V192.151Z" fill="#CCD3D9"/>
<path d="M1759.47 237.387H1675.31V238.899H1759.47V237.387Z" fill="#CCD3D9"/>
<path d="M1719.43 192.151H1717.39V238.899H1719.43V192.151Z" fill="#919FAD"/>
<path d="M1873.08 192.151H1788.92V238.899H1873.08V192.151Z" fill="#BDEEFF"/>
<path d="M1873.08 192.151H1788.92V193.663H1873.08V192.151Z" fill="#CCD3D9"/>
<path d="M1872.03 237.387H1787.87V238.899H1872.03V237.387Z" fill="#CCD3D9"/>
<path d="M1831.99 192.151H1829.95V238.899H1831.99V192.151Z" fill="#919FAD"/>
<path d="M1893.53 355.868H1645.98V378.223H1893.53V355.868Z" fill="#FF8A4B"/>
<path d="M1904.78 402.879H1634.74L1645.98 378.157H1893.53L1904.78 402.879Z" fill="#FF8A4B"/>
<path d="M1644.14 402.879H1634.74L1645.98 378.157H1654.6L1644.14 402.879Z" fill="#F1F8FF"/>
<path d="M1660.45 402.879H1650.98L1660.91 378.157H1669.52L1660.45 402.879Z" fill="#F1F8FF"/>
<path d="M1676.69 402.879H1667.29L1675.83 378.157H1684.45L1676.69 402.879Z" fill="#F1F8FF"/>
<path d="M1692.93 402.879H1683.53L1690.69 378.157H1699.37L1692.93 402.879Z" fill="#F1F8FF"/>
<path d="M1709.24 402.879H1699.83L1705.62 378.157H1714.3L1709.24 402.879Z" fill="#F1F8FF"/>
<path d="M1725.48 402.879H1716.07L1720.54 378.157H1729.16L1725.48 402.879Z" fill="#F1F8FF"/>
<path d="M1741.78 402.879H1732.31L1735.47 378.157H1744.08L1741.78 402.879Z" fill="#F1F8FF"/>
<path d="M1758.02 402.879H1748.62L1750.33 378.157H1759.01L1758.02 402.879Z" fill="#F1F8FF"/>
<path d="M1774.26 402.879H1764.86L1765.25 378.157H1773.93L1774.26 402.879Z" fill="#F1F8FF"/>
<path d="M1790.57 402.879H1781.1L1780.18 378.157H1788.79L1790.57 402.879Z" fill="#F1F8FF"/>
<path d="M1806.81 402.879H1797.41L1795.1 378.157H1803.72L1806.81 402.879Z" fill="#F1F8FF"/>
<path d="M1823.05 402.879H1813.65L1810.03 378.157H1818.64L1823.05 402.879Z" fill="#F1F8FF"/>
<path d="M1839.35 402.879H1829.95L1824.89 378.157H1833.57L1839.35 402.879Z" fill="#F1F8FF"/>
<path d="M1855.59 402.879H1846.19L1839.81 378.157H1848.43L1855.59 402.879Z" fill="#F1F8FF"/>
<path d="M1871.9 402.879H1862.43L1854.74 378.157H1863.35L1871.9 402.879Z" fill="#F1F8FF"/>
<path d="M1888.14 402.879H1878.74L1869.66 378.157H1878.28L1888.14 402.879Z" fill="#F1F8FF"/>
<path d="M1904.78 402.879H1895.37L1884.92 378.157H1893.53L1904.78 402.879Z" fill="#F1F8FF"/>
<path d="M1634.74 402.879C1634.74 406.626 1638.29 409.585 1642.7 409.585C1647.1 409.585 1650.65 406.561 1650.65 402.879H1634.74Z" fill="#FF8A4B"/>
<path d="M1650.65 402.879C1650.65 406.626 1654.2 409.585 1658.61 409.585C1663.01 409.585 1666.56 406.561 1666.56 402.879H1650.65Z" fill="#FF8A4B"/>
<path d="M1666.5 402.879C1666.5 406.626 1670.05 409.585 1674.45 409.585C1678.86 409.585 1682.41 406.561 1682.41 402.879H1666.5Z" fill="#FF8A4B"/>
<path d="M1682.41 402.879C1682.41 406.626 1685.96 409.585 1690.37 409.585C1694.77 409.585 1698.32 406.561 1698.32 402.879H1682.41Z" fill="#FF8A4B"/>
<path d="M1698.26 402.879C1698.26 406.626 1701.81 409.585 1706.21 409.585C1710.62 409.585 1714.17 406.561 1714.17 402.879H1698.26Z" fill="#FF8A4B"/>
<path d="M1714.17 402.879C1714.17 406.626 1717.72 409.585 1722.12 409.585C1726.53 409.585 1730.08 406.561 1730.08 402.879H1714.17Z" fill="#FF8A4B"/>
<path d="M1730.08 402.879C1730.08 406.626 1733.63 409.585 1738.03 409.585C1742.44 409.585 1745.99 406.561 1745.99 402.879H1730.08Z" fill="#FF8A4B"/>
<path d="M1745.92 402.879C1745.92 406.626 1749.47 409.585 1753.88 409.585C1758.28 409.585 1761.84 406.561 1761.84 402.879H1745.92Z" fill="#FF8A4B"/>
<path d="M1761.84 402.879C1761.84 406.626 1765.39 409.585 1769.79 409.585C1774.2 409.585 1777.75 406.561 1777.75 402.879H1761.84Z" fill="#FF8A4B"/>
<path d="M1777.68 402.879C1777.68 406.626 1781.23 409.585 1785.64 409.585C1790.04 409.585 1793.59 406.561 1793.59 402.879H1777.68Z" fill="#FF8A4B"/>
<path d="M1793.59 402.879C1793.59 406.626 1797.14 409.585 1801.55 409.585C1805.95 409.585 1809.5 406.561 1809.5 402.879H1793.59Z" fill="#FF8A4B"/>
<path d="M1809.5 402.879C1809.5 406.626 1813.05 409.585 1817.46 409.585C1821.86 409.585 1825.42 406.561 1825.42 402.879H1809.5Z" fill="#FF8A4B"/>
<path d="M1825.35 402.879C1825.35 406.626 1828.9 409.585 1833.31 409.585C1837.71 409.585 1841.26 406.561 1841.26 402.879H1825.35Z" fill="#FF8A4B"/>
<path d="M1841.26 402.879C1841.26 406.626 1844.81 409.585 1849.22 409.585C1853.62 409.585 1857.17 406.561 1857.17 402.879H1841.26Z" fill="#FF8A4B"/>
<path d="M1857.11 402.879C1857.11 406.626 1860.66 409.585 1865.06 409.585C1869.47 409.585 1873.02 406.561 1873.02 402.879H1857.11Z" fill="#FF8A4B"/>
<path d="M1873.02 402.879C1873.02 406.626 1876.57 409.585 1880.97 409.585C1885.38 409.585 1888.93 406.561 1888.93 402.879H1873.02Z" fill="#FF8A4B"/>
<path d="M1888.93 402.879C1888.93 406.626 1892.48 409.585 1896.89 409.585C1901.29 409.585 1904.84 406.561 1904.84 402.879H1888.93Z" fill="#FF8A4B"/>
<path d="M1830.87 334.105C1830.87 334.105 1810.69 325.557 1768.54 325.557C1726.4 325.557 1706.21 334.105 1706.21 334.105L1720.54 378.157H1816.54L1830.87 334.105Z" fill="#FFD064"/>
<path d="M4715.46 57.854H4544.05V497.406H4715.46V57.854Z" fill="#FFF8E3"/>
<path d="M4686.4 0.862213H4553.54L4544.05 57.854H4715.46L4686.4 0.862213Z" fill="#00D3E9"/>
<path d="M4612.86 69.3213H4563.02V119.157H4612.86V69.3213Z" fill="#BDEEFF"/>
<path d="M4612.86 69.3213H4563.02V70.9595H4612.86V69.3213Z" fill="#CCD3D9"/>
<path d="M4612.25 117.519H4562.42V119.157H4612.25V117.519Z" fill="#CCD3D9"/>
<path d="M4697.7 69.3213H4647.86V119.157H4697.7V69.3213Z" fill="#BDEEFF"/>
<path d="M4697.7 69.3213H4647.86V70.9595H4697.7V69.3213Z" fill="#CCD3D9"/>
<path d="M4697.01 117.519H4647.17V119.157H4697.01V117.519Z" fill="#CCD3D9"/>
<path d="M4612.86 134.245H4563.02V184.081H4612.86V134.245Z" fill="#BDEEFF"/>
<path d="M4612.86 134.245H4563.02V135.884H4612.86V134.245Z" fill="#CCD3D9"/>
<path d="M4612.25 182.443H4562.42V184.081H4612.25V182.443Z" fill="#CCD3D9"/>
<path d="M4697.7 134.245H4647.86V184.081H4697.7V134.245Z" fill="#BDEEFF"/>
<path d="M4697.7 134.245H4647.86V135.884H4697.7V134.245Z" fill="#CCD3D9"/>
<path d="M4697.01 182.443H4647.17V184.081H4697.01V182.443Z" fill="#CCD3D9"/>
<path d="M4612.86 199.083H4563.02V248.919H4612.86V199.083Z" fill="#BDEEFF"/>
<path d="M4612.86 199.083H4563.02V200.721H4612.86V199.083Z" fill="#CCD3D9"/>
<path d="M4612.25 247.28H4562.42V248.919H4612.25V247.28Z" fill="#CCD3D9"/>
<path d="M4697.7 199.083H4647.86V248.919H4697.7V199.083Z" fill="#BDEEFF"/>
<path d="M4697.7 199.083H4647.86V200.721H4697.7V199.083Z" fill="#CCD3D9"/>
<path d="M4697.01 247.28H4647.17V248.919H4697.01V247.28Z" fill="#CCD3D9"/>
<path d="M4612.86 263.921H4563.02V313.757H4612.86V263.921Z" fill="#BDEEFF"/>
<path d="M4612.86 263.921H4563.02V265.559H4612.86V263.921Z" fill="#CCD3D9"/>
<path d="M4612.25 312.118H4562.42V313.757H4612.25V312.118Z" fill="#CCD3D9"/>
<path d="M4697.7 263.921H4647.86V313.757H4697.7V263.921Z" fill="#BDEEFF"/>
<path d="M4697.7 263.921H4647.86V265.559H4697.7V263.921Z" fill="#CCD3D9"/>
<path d="M4697.01 312.118H4647.17V313.757H4697.01V312.118Z" fill="#CCD3D9"/>
<path d="M4612.86 328.845H4563.02V378.681H4612.86V328.845Z" fill="#BDEEFF"/>
<path d="M4612.86 328.845H4563.02V330.483H4612.86V328.845Z" fill="#CCD3D9"/>
<path d="M4612.25 377.042H4562.42V378.681H4612.25V377.042Z" fill="#CCD3D9"/>
<path d="M4697.7 328.845H4647.86V378.681H4697.7V328.845Z" fill="#BDEEFF"/>
<path d="M4697.7 328.845H4647.86V330.483H4697.7V328.845Z" fill="#CCD3D9"/>
<path d="M4697.01 377.042H4647.17V378.681H4697.01V377.042Z" fill="#CCD3D9"/>
<path d="M4492.81 497.493H4320.99V376.617L4406.87 325.62L4492.81 374.574V497.493Z" fill="#FFDCAA"/>
<path d="M4508.58 388.491L4406.87 329.124L4305.22 388.491V379.245L4406.87 319.878L4508.58 379.245V388.491Z" fill="#FF4333"/>
<path d="M4478.36 425.279H4408.92V485.619H4478.36V425.279Z" fill="#BDEEFF"/>
<path d="M4478.36 425.279H4408.92V427.225H4478.36V425.279Z" fill="#CCD3D9"/>
<path d="M4477.48 483.673H4408.04V485.619H4477.48V483.673Z" fill="#CCD3D9"/>
<path d="M4444.44 425.279H4442.79V485.619H4444.44V425.279Z" fill="#919FAD"/>
<path d="M4478.36 451.41H4408.92V455.449H4478.36V451.41Z" fill="white"/>
<path d="M4411.25 455.449H4408.92V485.619H4411.25V455.449Z" fill="white"/>
<path d="M4415.44 455.449H4413.1V485.619H4415.44V455.449Z" fill="white"/>
<path d="M4419.62 455.449H4417.29V485.619H4419.62V455.449Z" fill="white"/>
<path d="M4423.81 455.449H4421.47V485.619H4423.81V455.449Z" fill="white"/>
<path d="M4428.04 455.449H4425.71V485.619H4428.04V455.449Z" fill="white"/>
<path d="M4432.23 455.449H4429.89V485.619H4432.23V455.449Z" fill="white"/>
<path d="M4436.41 455.449H4434.08V485.619H4436.41V455.449Z" fill="white"/>
<path d="M4440.6 455.449H4438.26V485.619H4440.6V455.449Z" fill="white"/>
<path d="M4444.83 455.449H4442.49V485.619H4444.83V455.449Z" fill="white"/>
<path d="M4449.02 455.449H4446.68V485.619H4449.02V455.449Z" fill="white"/>
<path d="M4453.2 455.449H4450.86V485.619H4453.2V455.449Z" fill="white"/>
<path d="M4457.39 455.449H4455.05V485.619H4457.39V455.449Z" fill="white"/>
<path d="M4461.62 455.449H4459.28V485.619H4461.62V455.449Z" fill="white"/>
<path d="M4465.8 455.449H4463.47V485.619H4465.8V455.449Z" fill="white"/>
<path d="M4469.99 455.449H4467.65V485.619H4469.99V455.449Z" fill="white"/>
<path d="M4474.17 455.449H4471.84V485.619H4474.17V455.449Z" fill="white"/>
<path d="M4478.36 455.449H4476.02V485.619H4478.36V455.449Z" fill="white"/>
<path d="M4438.41 362.068H4376.12V396.666H4438.41V362.068Z" fill="#BDEEFF"/>
<path d="M4438.41 362.068H4376.12V363.187H4438.41V362.068Z" fill="#CCD3D9"/>
<path d="M4437.63 395.547H4375.34V396.666H4437.63V395.547Z" fill="#CCD3D9"/>
<path d="M4408.04 362.068H4406.53V396.666H4408.04V362.068Z" fill="#919FAD"/>
<path d="M4258.79 170.717H4011.24V497.492H4258.79V170.717Z" fill="#FFF7E6"/>
<path d="M4125.19 398.408H4041.03V497.493H4125.19V398.408Z" fill="#BDEEFF"/>
<path d="M4084.16 398.408H4082.12V497.492H4084.16V398.408Z" fill="#919FAD"/>
<path d="M4087.84 266.317H4041.09V313.065H4087.84V266.317Z" fill="#BDEEFF"/>
<path d="M4087.84 266.317H4041.09V267.829H4087.84V266.317Z" fill="#CCD3D9"/>
<path d="M4087.32 311.552H4040.57V313.065H4087.32V311.552Z" fill="#CCD3D9"/>
<path d="M4163.19 266.317H4116.44V313.065H4163.19V266.317Z" fill="#BDEEFF"/>
<path d="M4163.19 266.317H4116.44V267.829H4163.19V266.317Z" fill="#CCD3D9"/>
<path d="M4162.6 311.552H4115.85V313.065H4162.6V311.552Z" fill="#CCD3D9"/>
<path d="M4237.49 266.317H4190.74V313.065H4237.49V266.317Z" fill="#BDEEFF"/>
<path d="M4237.49 266.317H4190.74V267.829H4237.49V266.317Z" fill="#CCD3D9"/>
<path d="M4236.9 311.552H4190.15V313.065H4236.9V311.552Z" fill="#CCD3D9"/>
<path d="M4125.71 192.151H4041.55V238.899H4125.71V192.151Z" fill="#BDEEFF"/>
<path d="M4125.71 192.151H4041.55V193.663H4125.71V192.151Z" fill="#CCD3D9"/>
<path d="M4124.73 237.387H4040.57V238.899H4124.73V237.387Z" fill="#CCD3D9"/>
<path d="M4084.69 192.151H4082.65V238.899H4084.69V192.151Z" fill="#919FAD"/>
<path d="M4238.34 192.151H4154.18V238.899H4238.34V192.151Z" fill="#BDEEFF"/>
<path d="M4238.34 192.151H4154.18V193.663H4238.34V192.151Z" fill="#CCD3D9"/>
<path d="M4237.29 237.387H4153.13V238.899H4237.29V237.387Z" fill="#CCD3D9"/>
<path d="M4197.25 192.151H4195.21V238.899H4197.25V192.151Z" fill="#919FAD"/>
<path d="M4258.79 355.868H4011.24V378.223H4258.79V355.868Z" fill="#FF8A4B"/>
<path d="M4270.03 402.879H4000L4011.24 378.157H4258.79L4270.03 402.879Z" fill="#FF8A4B"/>
<path d="M4009.4 402.879H4000L4011.24 378.157H4019.86L4009.4 402.879Z" fill="#F1F8FF"/>
<path d="M4025.71 402.879H4016.24L4026.17 378.157H4034.78L4025.71 402.879Z" fill="#F1F8FF"/>
<path d="M4041.95 402.879H4032.55L4041.09 378.157H4049.71L4041.95 402.879Z" fill="#F1F8FF"/>
<path d="M4058.19 402.879H4048.79L4055.95 378.157H4064.63L4058.19 402.879Z" fill="#F1F8FF"/>
<path d="M4074.49 402.879H4065.09L4070.88 378.157H4079.56L4074.49 402.879Z" fill="#F1F8FF"/>
<path d="M4090.73 402.879H4081.33L4085.8 378.157H4094.42L4090.73 402.879Z" fill="#F1F8FF"/>
<path d="M4107.04 402.879H4097.57L4100.73 378.157H4109.34L4107.04 402.879Z" fill="#F1F8FF"/>
<path d="M4123.28 402.879H4113.88L4115.59 378.157H4124.27L4123.28 402.879Z" fill="#F1F8FF"/>
<path d="M4139.52 402.879H4130.12L4130.51 378.157H4139.19L4139.52 402.879Z" fill="#F1F8FF"/>
<path d="M4155.83 402.879H4146.36L4145.44 378.157H4154.05L4155.83 402.879Z" fill="#F1F8FF"/>
<path d="M4172.07 402.879H4162.66L4160.36 378.157H4168.98L4172.07 402.879Z" fill="#F1F8FF"/>
<path d="M4188.31 402.879H4178.9L4175.29 378.157H4183.9L4188.31 402.879Z" fill="#F1F8FF"/>
<path d="M4204.61 402.879H4195.21L4190.15 378.157H4198.83L4204.61 402.879Z" fill="#F1F8FF"/>
<path d="M4220.85 402.879H4211.45L4205.07 378.157H4213.69L4220.85 402.879Z" fill="#F1F8FF"/>
<path d="M4237.16 402.879H4227.69L4220 378.157H4228.61L4237.16 402.879Z" fill="#F1F8FF"/>
<path d="M4253.4 402.879H4244L4234.92 378.157H4243.54L4253.4 402.879Z" fill="#F1F8FF"/>
<path d="M4270.03 402.879H4260.63L4250.18 378.157H4258.79L4270.03 402.879Z" fill="#F1F8FF"/>
<path d="M4000 402.879C4000 406.626 4003.55 409.585 4007.96 409.585C4012.36 409.585 4015.91 406.561 4015.91 402.879H4000Z" fill="#FF8A4B"/>
<path d="M4015.91 402.879C4015.91 406.626 4019.46 409.585 4023.87 409.585C4028.27 409.585 4031.82 406.561 4031.82 402.879H4015.91Z" fill="#FF8A4B"/>
<path d="M4031.76 402.879C4031.76 406.626 4035.31 409.585 4039.71 409.585C4044.12 409.585 4047.67 406.561 4047.67 402.879H4031.76Z" fill="#FF8A4B"/>
<path d="M4047.67 402.879C4047.67 406.626 4051.22 409.585 4055.62 409.585C4060.03 409.585 4063.58 406.561 4063.58 402.879H4047.67Z" fill="#FF8A4B"/>
<path d="M4063.51 402.879C4063.51 406.626 4067.06 409.585 4071.47 409.585C4075.88 409.585 4079.43 406.561 4079.43 402.879H4063.51Z" fill="#FF8A4B"/>
<path d="M4079.43 402.879C4079.43 406.626 4082.98 409.585 4087.38 409.585C4091.79 409.585 4095.34 406.561 4095.34 402.879H4079.43Z" fill="#FF8A4B"/>
<path d="M4095.34 402.879C4095.34 406.626 4098.89 409.585 4103.29 409.585C4107.7 409.585 4111.25 406.561 4111.25 402.879H4095.34Z" fill="#FF8A4B"/>
<path d="M4111.18 402.879C4111.18 406.626 4114.73 409.585 4119.14 409.585C4123.54 409.585 4127.09 406.561 4127.09 402.879H4111.18Z" fill="#FF8A4B"/>
<path d="M4127.09 402.879C4127.09 406.626 4130.64 409.585 4135.05 409.585C4139.45 409.585 4143.01 406.561 4143.01 402.879H4127.09Z" fill="#FF8A4B"/>
<path d="M4142.94 402.879C4142.94 406.626 4146.49 409.585 4150.9 409.585C4155.3 409.585 4158.85 406.561 4158.85 402.879H4142.94Z" fill="#FF8A4B"/>
<path d="M4158.85 402.879C4158.85 406.626 4162.4 409.585 4166.81 409.585C4171.21 409.585 4174.76 406.561 4174.76 402.879H4158.85Z" fill="#FF8A4B"/>
<path d="M4174.76 402.879C4174.76 406.626 4178.31 409.585 4182.72 409.585C4187.12 409.585 4190.67 406.561 4190.67 402.879H4174.76Z" fill="#FF8A4B"/>
<path d="M4190.61 402.879C4190.61 406.626 4194.16 409.585 4198.56 409.585C4202.97 409.585 4206.52 406.561 4206.52 402.879H4190.61Z" fill="#FF8A4B"/>
<path d="M4206.52 402.879C4206.52 406.626 4210.07 409.585 4214.48 409.585C4218.88 409.585 4222.43 406.561 4222.43 402.879H4206.52Z" fill="#FF8A4B"/>
<path d="M4222.37 402.879C4222.37 406.626 4225.92 409.585 4230.32 409.585C4234.73 409.585 4238.28 406.561 4238.28 402.879H4222.37Z" fill="#FF8A4B"/>
<path d="M4238.28 402.879C4238.28 406.626 4241.83 409.585 4246.23 409.585C4250.64 409.585 4254.19 406.561 4254.19 402.879H4238.28Z" fill="#FF8A4B"/>
<path d="M4254.19 402.879C4254.19 406.626 4257.74 409.585 4262.14 409.585C4266.55 409.585 4270.1 406.561 4270.1 402.879H4254.19Z" fill="#FF8A4B"/>
<path d="M4196.13 334.105C4196.13 334.105 4175.95 325.557 4133.8 325.557C4091.66 325.557 4071.47 334.105 4071.47 334.105L4085.8 378.157H4181.8L4196.13 334.105Z" fill="#FFD064"/>
</svg>
